<svg width="1331" height="427" viewBox="0 0 1331 427" fill="none" xmlns="http://www.w3.org/2000/svg">
<path d="M228.96 117.345C232.332 119.903 234.555 121.284 236.624 122.946C249.475 133.601 265.518 139.642 282.196 140.108C290.283 140.285 298.326 138.864 305.865 135.929C313.404 132.993 320.291 128.599 326.134 122.997C337.341 112.645 346.036 99.8634 351.551 85.6301C352.411 84.2519 353.431 82.9812 354.591 81.8447C358.525 88.5969 361.871 94.8376 365.729 100.771C374.899 114.813 386.752 126.527 403.127 130.568C415.899 133.739 430.026 133.867 442.262 126.68C450.385 121.898 457.819 115.887 465.533 110.439L467.781 108.93C470.157 116.603 472.124 124.276 474.729 131.591C477.906 141.106 484.723 148.97 493.684 153.459C497.068 154.977 500.859 155.334 504.466 154.473C508.074 153.613 511.297 151.584 513.635 148.702C516.441 144.823 520.145 141.684 524.43 139.554C528.715 137.425 533.452 136.369 538.235 136.476C544.314 136.476 547.482 132.41 549.244 127.269C551.799 119.596 553.459 111.309 556.678 103.841C560.689 94.5051 566.564 91.0523 580.001 91.2057C585.695 91.161 591.335 92.3203 596.551 94.6077C601.768 96.8951 606.443 100.259 610.272 104.48C615.789 110.363 617.194 110.363 620.847 103.048C625.241 94.1982 632.24 91.3848 641.283 91.129C654.465 90.7198 665.73 94.4795 674.747 104.531C692.271 123.969 710.153 143.228 727.626 162.922C729.053 164.69 730.892 166.081 732.98 166.972C735.069 167.864 737.344 168.23 739.606 168.038C749.032 167.756 758.944 165.659 767.706 171.184C773.294 174.892 778.558 179.067 783.442 183.665C787.478 187.348 790.722 191.926 794.681 195.737C795.959 196.965 798.385 196.99 800.301 197.553C800.725 195.351 800.768 193.094 800.429 190.877C799.867 189.164 797.875 187.834 796.367 186.504C789.749 180.834 785.621 172.788 784.872 164.099C784.261 157.929 784.048 151.727 784.234 145.53C784.54 136.246 790.16 130.184 797.798 126.22C814.479 117.294 831.722 109.825 850.829 107.856C860.818 106.833 870.857 105.017 880.819 105.298C897.168 105.733 913.006 109.57 925.37 121.13C936.457 131.514 946.879 142.691 956.969 154.073C960.524 158.316 963.137 163.268 964.633 168.6C966.165 173.716 968.899 174.611 973.497 174.329C980.394 173.92 987.317 173.843 994.239 173.895C1002.9 173.895 1010.05 177.885 1016.8 182.949C1018.61 183.829 1020.56 184.367 1022.57 184.534C1023.25 182.623 1023.65 180.625 1023.77 178.601C1022.47 165.403 1032.51 146.758 1049.31 148.088C1058.31 148.778 1059.53 143.765 1063.19 132.742C1066.28 123.586 1066.92 113.074 1076.32 107.165C1077.65 106.226 1079.15 105.557 1080.74 105.196C1088.26 103.815 1096 104.333 1103.27 106.705C1110.54 109.076 1117.11 113.226 1122.37 118.777C1123.29 119.672 1124.11 120.695 1124.93 121.539C1129.22 125.427 1130.5 125.248 1132.59 120.005C1134.07 115.903 1136.81 112.381 1140.43 109.951C1144.05 107.522 1148.34 106.313 1152.7 106.5C1159.48 106.355 1166.21 107.676 1172.43 110.372C1178.66 113.069 1184.23 117.079 1188.77 122.128C1203.94 138.113 1219.7 153.178 1235.13 168.805C1236.08 169.596 1236.98 170.45 1237.81 171.363C1240.99 176.195 1245.49 180.02 1250.76 182.389C1256.04 184.758 1261.88 185.573 1267.6 184.739C1277.3 183.767 1286.32 188.678 1293.42 195.251C1302.57 203.717 1310.97 212.976 1319.38 222.234C1321.22 224.677 1322.41 227.545 1322.85 230.572C1324.95 240.803 1320.55 250.445 1318.36 260.215C1315.47 273.004 1312.17 285.792 1309.24 298.58C1306.3 311.368 1303.46 324.822 1300.75 337.866C1299.25 345.206 1297.61 352.572 1296.85 360.015C1295.46 377.194 1288.15 393.355 1276.15 405.72C1270.15 411.859 1262.1 416.104 1254.67 420.682C1242.82 428.023 1229.43 425.312 1216.84 424.519C1210.71 424.161 1203.94 419.404 1199.16 414.979C1188.02 404.416 1178.06 392.599 1167.28 381.602C1164.73 378.806 1161.37 376.883 1157.68 376.103C1148.73 375.129 1140.21 371.744 1133.03 366.307C1129.55 363.749 1126.13 364.235 1122.35 366.511C1100.99 379.3 1079.2 376.742 1062.01 358.838C1057.03 353.723 1051.79 348.761 1046.68 343.748C1041.57 338.735 1039.02 339.145 1035.26 344.823C1029.64 353.267 1022.18 360.33 1013.45 365.488C998.761 374.031 983.459 377.023 966.549 372.496C955.877 369.664 946.251 363.802 938.832 355.616C928.614 344.771 915.995 335.999 909.43 322.366C905.691 313.714 902.858 304.697 900.974 295.46C899.723 290.191 898.216 287.608 892.672 287.071C888.636 286.713 884.626 286.406 880.589 286.176C875.48 285.894 872.926 288.426 872.057 293.414C869.196 311.317 866.182 329.221 863.295 347.124C862.197 353.953 862.044 360.91 856.603 366.409C847.815 375.361 836.933 376.768 825.233 376.333C820.364 376.118 815.597 374.866 811.249 372.661C806.902 370.456 803.073 367.348 800.02 363.545C793.941 356.664 787.657 349.963 781.372 343.288C780.983 342.847 780.503 342.495 779.965 342.257C779.427 342.018 778.844 341.899 778.256 341.907C777.336 342.214 776.544 343.646 776.161 344.746C772.84 353.851 770.541 363.442 766.199 372.01C757.028 390.093 742.927 402.907 722.772 407.971C718.779 409.288 714.675 410.238 710.51 410.81C693.804 411.807 679.55 406.539 668.617 393.392C661.566 384.927 654.541 376.486 647.414 368.123C644.119 364.261 640.313 361.166 634.642 361.55C627.995 361.783 621.477 359.674 616.224 355.59C614.536 354.166 612.417 353.353 610.211 353.283C608.004 353.214 605.838 353.891 604.064 355.207C591.803 363.442 578.136 363.672 564.469 361.012C559.13 359.964 554.43 355.897 549.142 353.698C547.975 353.183 546.714 352.918 545.438 352.918C544.163 352.918 542.902 353.183 541.734 353.698C535.885 358.017 529.133 360.952 521.987 362.281C514.841 363.61 507.487 363.299 500.479 361.371C496.626 360.36 492.961 358.737 489.622 356.562C488.259 355.46 486.559 354.858 484.807 354.858C483.055 354.858 481.355 355.46 479.992 356.562C471.679 362.349 461.702 365.251 451.586 364.823C443.17 364.365 435.053 361.547 428.161 356.69C426.739 355.547 424.947 354.965 423.126 355.055C421.304 355.144 419.579 355.899 418.275 357.176C410.936 363.134 401.908 366.625 392.474 367.151C385.245 367.355 377.786 364.9 370.761 362.624C366.572 361.268 363.098 360.475 359.521 363.34C348.077 372.42 334.896 372.982 321.331 370.859C317.832 370.322 314.69 367.688 311.113 366.87C308.45 366.087 305.595 366.287 303.067 367.432C290.294 375.949 276.883 379.274 261.914 374.824C255.4 372.88 250.214 376.793 244.696 378.89C218.921 388.763 192.61 383.341 175.367 360.859C174.456 359.708 173.475 358.614 172.429 357.585C168.572 353.774 166.656 354.03 163.054 358.097C156.131 365.923 149.745 374.389 141.903 381.116C134.442 387.51 125.767 392.329 116.399 395.283C107.031 398.236 97.164 399.264 87.3897 398.303C70.5657 397.487 54.7534 390.017 43.4267 377.535C33.5663 366.69 23.8847 355.616 15.1738 343.876C11.6741 339.17 11.8019 331.906 8.81309 326.638C4.64925 319.297 5.72214 311.701 6.07977 304.233C6.49921 298.673 7.85522 293.225 10.0903 288.119C13.7291 279.009 17.997 270.164 22.8629 261.648C26.9501 254.793 34.1538 251.417 42.0983 250.138C45.5213 249.55 48.9188 248.655 52.3163 247.836C57.4253 246.583 57.8085 245.049 54.8708 240.726C49.1998 232.414 42.6603 224.459 38.6753 215.38C33.5102 204.338 32.0668 191.916 34.5625 179.982C37.0753 166.607 43.0371 154.122 51.8565 143.765C59.5732 135.145 69.27 128.535 80.1094 124.506C90.955 120.046 102.621 117.937 114.34 118.317C131.404 119.059 145.862 124.839 157.179 138.42C165.174 147.975 173.802 156.982 183.005 165.378C196.697 178.012 214.119 173.92 221.578 156.835C226.47 146.54 228.876 135.238 228.603 123.841C228.612 121.671 228.731 119.503 228.96 117.345ZM703.281 323.134C703.362 324.855 703.19 326.578 702.77 328.249C694.928 344.055 686.498 352.214 665.091 349.247C661.208 348.71 657.428 348.992 655.946 352.368C655.002 355.32 654.94 358.485 655.767 361.473C656.522 363.528 657.686 365.408 659.19 366.997C668.208 379.786 695.107 379.274 708.799 371.678C729.235 360.348 739.785 342.163 744.562 320.116C748.062 304.233 750.846 288.196 754.474 272.364C758.944 252.773 763.925 233.309 768.779 213.794C769.814 209.339 771.163 204.963 772.815 200.699C775.574 193.972 774.961 190.468 770.056 185.353C763.797 178.831 755.444 177.68 747.372 176.887C744.967 176.588 742.535 177.155 740.509 178.485C738.483 179.816 736.995 181.824 736.311 184.151C733.424 193 730.103 201.747 727.6 210.725C724.662 220.955 722.261 231.595 719.937 242.107C717.382 253.182 715.645 264.41 712.784 275.357C711.463 278.765 709.16 281.702 706.168 283.797C705.555 284.376 704.814 284.804 704.006 285.044C703.198 285.285 702.345 285.333 701.515 285.184C700.685 285.035 699.902 284.693 699.228 284.185C698.555 283.678 698.009 283.019 697.636 282.262C696.24 280.125 695.365 277.69 695.081 275.152C694.621 264.18 694.494 253.259 698.147 242.593C703.562 226.838 708.646 211.006 713.474 195.098C714.356 192.189 714.175 189.061 712.963 186.274C705.963 172.974 684.25 171.746 676.025 184.304C672.34 190.196 669.291 196.463 666.931 203.001C663.931 210.813 661.372 218.789 659.267 226.889C656.942 235.867 655.103 244.997 653.443 254.128C651.987 262.057 651.629 270.216 649.739 278.042C648.577 281.905 646.28 285.327 643.148 287.864C637.579 292.57 630.044 290.421 629.405 284.206C628.812 278.357 628.924 272.458 629.737 266.635C631.295 255.97 633.62 245.432 635.612 234.818C636.915 227.81 637.937 220.751 639.648 213.82C642.586 201.747 646.137 189.829 649.1 177.731C651.323 168.677 652.779 167.5 662.077 167.142C666.39 167.026 670.632 166.025 674.543 164.201C680.291 161.337 685.732 151.183 684.122 147.423C681.108 140.313 674.185 141.31 668.412 140.824C661.49 140.236 660.57 139.52 662.741 132.793C663.124 131.565 663.865 130.466 664.351 129.289C670.022 115.861 668.719 110.721 657.683 104.582C655.037 103.329 652.223 102.468 649.33 102.025C634.003 98.802 631.065 104.25 627.259 115.759C624.705 123.202 622.661 130.747 620.03 138.113C619.417 139.776 617.348 141.95 615.815 142.052C609.505 142.487 603.042 142.231 596.12 142.231C598.061 136.323 599.517 131.08 601.51 126.067C605.622 115.836 604.064 110.004 594.102 105.324C589.252 103.19 584.062 101.935 578.775 101.615C570.575 100.95 566.666 104.326 564.393 112.127C561.838 120.695 559.284 129.212 556.729 137.704C554.992 143.407 551.62 146.835 545.106 146.067C541.982 145.967 538.856 146.121 535.757 146.528C528.451 146.911 523.98 151.132 521.503 157.602C518.59 165.275 521.375 169.316 529.524 169.265C533.914 169.192 538.298 168.876 542.654 168.319C546.486 167.859 547.763 168.933 546.613 172.872C544.791 178.839 543.088 184.807 541.504 190.775C540.074 196.249 538.771 201.773 537.673 207.323C536.446 214.843 535.118 222.516 533.739 230.189C531.746 241.161 529.983 252.21 527.582 263.106C525.82 271.29 523.929 279.654 516.802 285.357C513.635 287.915 509.624 290.293 506.354 287.557C504.957 286.323 503.835 284.808 503.06 283.112C502.286 281.416 501.876 279.575 501.858 277.71C503.013 267.343 504.969 257.082 507.708 247.018C510.952 235.278 515.78 223.999 519.229 212.285C521.196 205.661 520.404 199.267 513.609 194.791C512.619 193.944 511.811 192.904 511.236 191.734C510.66 190.564 510.329 189.289 510.263 187.987C509.675 177.603 504.975 171.184 494.936 169.598C486.128 168.065 477.084 168.607 468.522 171.182C459.96 173.757 452.115 178.294 445.608 184.432C431.526 197.143 420.355 212.752 412.859 230.189C407.718 241.653 403.895 253.666 401.466 265.996C399.488 273.945 396.492 281.605 392.551 288.784C391.701 289.86 390.591 290.699 389.325 291.223C388.06 291.747 386.682 291.937 385.322 291.777C384.137 291.09 383.14 290.122 382.418 288.958C381.696 287.793 381.272 286.469 381.184 285.101C381.557 279.842 382.412 274.628 383.738 269.525C386.293 258.118 388.336 246.506 391.402 235.355C394.952 222.567 399.55 209.958 403.254 197.169C403.682 194.541 403.233 191.844 401.977 189.496C397.558 180.365 381.541 175.941 372.447 178.652C370.301 179.317 367.338 180.365 366.597 182.054C363.575 188.908 361.015 195.957 358.934 203.154C356.098 213.155 353.825 223.283 351.449 233.411C349.329 242.465 347.541 251.596 345.395 260.65C343.377 269.167 341.384 277.684 338.881 286.048C338.141 288.355 336.636 290.341 334.615 291.676C332.594 293.011 330.179 293.615 327.769 293.388C322.66 292.237 321.459 288.273 320.897 283.49C318.981 265.996 324.269 249.627 328.561 233.207C331.473 221.979 336.684 211.39 340.26 200.29C341.064 197.161 340.624 193.842 339.034 191.031C332.367 180.391 307.869 176.503 300.717 192.745C299.235 196.069 297.166 199.19 296.016 202.617C292.389 213.487 288.838 224.408 285.798 235.406C283.448 243.667 280.689 252.056 280.051 260.497C278.952 275.362 278.952 290.288 280.051 305.153C281.034 312.971 283.9 320.432 288.404 326.893C298.392 341.856 320.514 341.37 332.597 331.779C336.684 328.53 340.26 324.745 344.577 320.832C352.241 331.83 362.893 335.973 375.461 333.134C387.187 330.576 395.897 322.443 404.123 312.801C410.611 325.896 420.855 331.676 433.934 331.523C447.013 331.369 456.363 324.003 464.001 314.361C486.531 340.372 506.584 331.574 525.436 311.573C526.279 311.88 526.509 311.88 526.612 312.008L527.863 313.773C535.757 324.617 546.281 331.088 559.795 329.707C569.588 328.734 578.725 324.332 585.595 317.277C589.606 313.133 591.7 313.721 594.817 318.172C600.743 326.535 610.144 329.349 619.468 329.119C624.357 329.108 629.195 328.13 633.706 326.243C638.216 324.356 642.311 321.596 645.754 318.121C649.049 314.77 651.91 310.985 655.614 306.662C659.829 318.069 665.832 324.719 675.539 328.402C685.63 332.162 693.957 327.814 703.281 323.134ZM1223.92 340.909C1222.08 344.643 1220.52 348.582 1218.32 352.086C1210.38 364.875 1198.24 366.256 1184.96 363.928C1177.86 362.701 1174.92 365.514 1175.86 372.599C1176.26 375.449 1177.31 378.167 1178.95 380.531C1180.59 382.896 1182.76 384.84 1185.29 386.205C1190.76 389.569 1196.9 391.701 1203.28 392.452C1209.66 393.202 1216.13 392.555 1222.23 390.553C1243.28 384.466 1254.85 369.478 1261.21 349.989C1264.69 339.272 1265.78 327.789 1267.95 316.74L1271.4 299.527C1273.96 286.738 1276.26 273.95 1278.94 261.162C1280.17 255.305 1282.03 249.576 1283.59 243.77C1286.14 234.255 1288.88 224.766 1291.1 215.175C1291.51 212.651 1291.05 210.062 1289.8 207.835C1283.74 197.323 1268.54 193.435 1257.23 196.274C1256.26 196.723 1255.4 197.368 1254.69 198.17C1253.99 198.971 1253.46 199.911 1253.14 200.929C1250.58 209.037 1248.03 217.221 1245.83 225.534C1242.44 239.166 1239.47 252.926 1236.33 266.635C1234.69 275.587 1232.56 284.441 1229.94 293.158C1228.72 296.611 1223.92 298.785 1220.75 301.547C1217.99 298.376 1215.23 295.23 1212.55 292.007C1212.16 291.521 1212.29 290.575 1212.22 289.859C1210.45 273.899 1215.36 258.962 1219.73 244.077C1222.87 233.411 1227.64 223.232 1231.37 212.72C1232.25 210.549 1232.44 208.164 1231.93 205.881C1231.42 203.597 1230.23 201.523 1228.51 199.932C1220.85 192.054 1211.6 190.647 1201.69 192.898C1198.26 194.059 1195.38 196.457 1193.62 199.625C1185.32 213.619 1179.53 228.956 1176.5 244.946C1174.23 257.504 1172.57 270.19 1169.94 282.646C1168.43 289.68 1167.21 297.404 1161.13 302.212C1159.72 303.231 1158.13 303.948 1156.43 304.317C1154.74 304.687 1152.99 304.702 1151.29 304.36C1148.97 303.695 1146.62 299.731 1146.18 296.918C1145.5 292.171 1145.57 287.346 1146.39 282.62C1149.37 263.643 1152.57 244.699 1155.99 225.789C1157.06 219.702 1158.88 213.768 1160.44 207.886C1161.99 202.003 1164.11 195.098 1165.54 188.806C1166.8 182.898 1169.07 180.903 1175 181.67C1186.54 183.179 1191.63 180.596 1196.94 170.595C1200.8 163.357 1197.65 157.398 1189.28 156.528C1186.19 156.196 1183.02 156.247 1179.9 156.196C1176.3 156.196 1174.79 154.584 1175.99 151.08C1177.69 146.731 1179.09 142.27 1180.18 137.729C1180.7 134.651 1180.43 131.491 1179.39 128.547C1176.96 121.693 1158.62 113.994 1151.04 116.552C1148.27 117.38 1145.9 119.201 1144.39 121.667C1141.36 128.332 1138.99 135.28 1137.32 142.41C1134.76 153.843 1133.03 155.838 1121.51 155.863C1119.28 155.863 1117.09 155.863 1114.86 155.863C1109.45 155.863 1108.58 154.201 1110.52 149.034C1112.57 144.355 1114.16 139.49 1115.27 134.507C1115.61 131.377 1114.85 128.226 1113.1 125.606C1107.25 116.987 1097.77 114.992 1088.4 114.915C1086.45 114.979 1084.54 115.489 1082.82 116.407C1081.09 117.325 1079.6 118.626 1078.46 120.21C1075.11 127.578 1072.59 135.299 1070.95 143.228C1068.04 156.196 1065.28 158.881 1051.89 159.137C1051.16 159.175 1050.43 159.175 1049.7 159.137C1043.26 158.37 1039.48 161.925 1036.41 167.015C1031.61 175.327 1034.83 181.133 1044.23 181.184H1060.48C1058.82 186.939 1057.8 191.415 1056.19 195.609C1054.71 200.108 1052.67 204.404 1050.13 208.397C1045.56 215.584 1038.95 221.246 1031.15 224.664C1028.09 225.917 1027.35 224.817 1026.38 221.799C1023.82 214.408 1021.78 206.607 1017.69 200.136C1006.35 182.233 985.35 179.291 965.323 186.99C949.178 193.077 937.504 204.612 928.563 218.756C919.049 233.394 913.212 250.119 911.55 267.505C910.324 281.904 909.915 295.895 914.973 309.732C926.111 340.116 957.838 348.787 982.949 335.487C1003.38 324.694 1013.22 305.23 1019.78 284.104C1022.49 275.408 1024.08 266.354 1026.32 257.53C1026.51 256.838 1026.83 256.189 1027.27 255.623C1027.71 255.056 1028.26 254.583 1028.88 254.23C1034.6 251.468 1040.45 248.987 1046.38 246.378C1045.33 254.64 1044.26 262.799 1043.23 270.932C1041.4 285.792 1039.38 300.601 1041.09 315.64C1042.29 326.228 1055.16 338.173 1065.31 340.168C1072.25 341.714 1079.48 341.342 1086.23 339.089C1092.98 336.836 1098.99 332.789 1103.62 327.379C1106.97 323.773 1108.73 324.054 1111.41 328.07C1119.54 339.682 1130.85 345.513 1145.08 342.981C1155.7 341.184 1165.27 335.483 1171.91 326.996C1172.86 325.464 1173.61 323.813 1174.13 322.085C1188.43 345.053 1195.51 347.508 1223.92 340.909ZM17.4473 312.545C17.0587 318.848 17.9693 325.164 20.1227 331.099C22.2761 337.035 25.6261 342.464 29.9644 347.048C44.4485 362.777 62.611 366.87 83.4302 363.877C97.2246 361.882 108.286 355.334 118.248 346.511C130.419 335.536 139.053 321.184 143.052 305.281C147.264 290.93 146.361 275.559 140.498 261.801C135.082 248.859 126.244 238.347 116.256 228.68C107.315 220.009 98.3741 211.39 89.7143 202.412C81.0545 193.435 85.1162 175.276 96.3816 168.242C103.177 163.997 112.245 166.733 113.139 173.971C113.932 180.351 113.803 186.811 112.756 193.154C111.887 198.269 111.504 203.384 115.796 205.456C120.022 207.463 124.85 207.792 129.309 206.377C145.326 200.238 158.839 172.948 153.066 155.224C148.851 142.205 134.546 130.798 121.671 129.647C107.11 128.42 92.8564 129.059 79.2919 136.016C58.4472 146.732 46.5432 163.383 44.193 186.708C42.4559 203.973 49.0466 218.551 60.4141 230.802C70.8876 242.107 82.7405 252.082 93.2651 263.336C102.487 273.208 110.15 283.797 104.658 299.143C101.337 308.478 97.3267 316.74 88.0794 320.295C79.4452 323.594 69.7892 323.364 68.4608 310.729C67.4704 300.07 69.2295 289.335 73.5698 279.551C78.6788 267.581 77.9636 265.638 66.4172 260.42C57.0677 256.174 38.5475 258.297 31.8036 267.172C22.1732 279.781 17.3196 294.13 17.4473 312.545ZM816.19 178.498C815.041 182.77 813.764 186.811 812.895 190.929C810.341 203.052 807.939 215.226 805.436 227.375C804.235 233.283 802.881 239.166 801.757 245.1C799.765 255.688 797.747 266.277 795.984 276.891C794.503 285.92 793.149 294.948 792.076 304.028C790.926 313.849 789.879 323.722 789.521 333.594C789.594 334.971 789.996 336.311 790.694 337.499C791.392 338.688 792.365 339.691 793.532 340.423C798.034 342.251 802.827 343.256 807.684 343.39C823.241 343.672 830.291 336.408 831.415 320.934C832.156 310.703 833.791 300.473 835.349 290.472C837.112 279.295 839.411 268.195 841.173 256.993C842.144 250.778 844.367 249.32 850.6 251.391C854.585 252.71 858.707 253.568 862.887 253.949C887.359 255.56 904.372 243.181 917.374 223.999C924.457 213.737 929.424 202.164 931.986 189.957C934.847 175.864 935.92 161.823 931.22 147.679C924.757 128.266 906.058 117.856 887.384 116.245C862.252 113.991 836.981 118.652 814.3 129.724C807.863 132.793 800.914 136.527 796.572 141.873C788.908 151.362 794.017 161.95 797.875 171.593C800.914 179.266 805.308 180.775 813.355 178.166C814.31 178.167 815.261 178.279 816.19 178.498ZM151.584 295.204C152.761 303.349 154.546 311.394 156.923 319.272C159.928 327.916 165.438 335.468 172.75 340.963C180.062 346.457 188.844 349.644 197.974 350.117C211.644 351.104 225.221 347.207 236.292 339.119C237.886 338.03 239.813 337.541 241.733 337.738C247.659 338.735 253.458 340.475 259.359 341.472C268.657 343.032 274.38 340.168 276.321 331.855C277.419 326.678 277.419 321.328 276.321 316.151C275.044 309.808 271.978 304.591 263.804 304.846C259.793 304.846 261.249 301.291 262.118 299.399C267.227 286.815 268.274 273.438 269.781 260.164C270.749 254.946 271.075 249.63 270.752 244.332C269.606 235.266 267.683 226.315 265.005 217.579C260.151 202.233 249.677 192.003 233.482 189.727C215.6 187.169 200.095 193.844 187.118 205.584C162.083 228.168 152.606 257.453 151.584 295.204Z" fill="#141A21"/>
<path d="M353.723 66.9335C352.037 63.8387 350.529 61.5113 349.457 59.0048C344.194 46.8048 338.063 34.8094 337.987 21.0492C337.987 12.0207 348.409 0.588004 356.992 1.38088C362.229 1.94356 370.787 9.48863 372.319 15.2178C374.746 24.323 372.319 32.6354 368.258 40.5385C363.787 49.0811 358.959 57.419 353.723 66.9335Z" fill="#141A21"/>
<path d="M471.204 95.0935C470.649 90.3664 470.427 85.6059 470.54 80.8474C471.613 70.2587 473.35 59.7724 480.196 50.9996C485.816 43.8638 493.965 43.9917 500.632 46.5237C510.85 50.3858 510.416 66.678 503.851 71.9468C493.965 79.9011 483.134 86.7556 471.204 95.0935Z" fill="#141A21"/>
<path d="M225.665 106.193C223.06 103.799 220.295 101.586 217.388 99.569C209.725 95.0931 202.061 90.873 194.398 86.7807C191.506 85.3526 189.102 83.0989 187.488 80.3041C185.874 77.5093 185.123 74.2985 185.329 71.0768C185.258 68.449 185.997 65.863 187.446 63.6708C188.895 61.4786 190.983 59.7868 193.427 58.8256C199.686 56.268 206.915 55.8587 212.024 61.0252C216.206 65.0903 219.419 70.0471 221.425 75.5271C224.49 84.9392 227.709 94.6327 225.665 106.193Z" fill="#141A21"/>
<path d="M290.856 99.2629C284.776 90.2855 278.262 81.5639 272.744 72.2541C269.219 66.2947 273.562 56.9082 279.616 54.9132C281.328 54.3205 283.145 54.0924 284.95 54.2436C286.755 54.3947 288.508 54.9219 290.098 55.7912C291.688 56.6604 293.079 57.8527 294.181 59.2915C295.284 60.7303 296.074 62.3839 296.501 64.1463C300.359 76.9346 296.706 87.6511 292.619 98.8537L290.856 99.2629Z" fill="#141A21"/>
<path d="M411.122 94.3521C405.86 86.6791 405.604 77.9831 406.013 69.5684C406.541 64.334 408.058 59.2477 410.483 54.5806C411.599 52.3389 413.468 50.5619 415.761 49.5611C418.054 48.5604 420.626 48.3997 423.026 49.1072C427.624 51.0766 431.354 54.0435 431.814 59.9516C432.136 63.139 431.758 66.3584 430.708 69.3846C429.658 72.4108 427.96 75.1708 425.734 77.4715C420.804 82.8426 416.18 88.4439 411.122 94.3521Z" fill="#141A21"/>
<path d="M564.546 278.349C567.1 264.154 569.451 249.959 572.031 235.79C573.333 228.603 574.738 221.416 576.348 214.305C577.957 207.195 579.72 200.878 581.457 194.177C582.989 188.192 584.905 182.284 586.106 176.273C587.179 170.928 589.222 167.398 595.353 167.654C598.47 167.807 601.586 167.347 604.703 167.321C610.604 167.321 611.83 168.856 610.323 174.687C609.199 179.087 607.921 183.46 606.951 187.885C603.604 203.231 600.181 218.577 597.141 233.923C594.587 246.276 593.31 258.86 590.5 271.136C588.89 278.144 586.157 285.076 579.132 289.193C572.107 293.311 566.768 290.728 565.874 282.927C565.721 281.469 565.721 279.986 565.67 278.528L564.546 278.349Z" fill="#141A21"/>
<path d="M478.076 205.124C478.396 208.108 478.396 211.118 478.076 214.101C476.62 220.854 474.602 227.504 472.813 234.205C471.553 238.962 470.293 243.719 469.033 248.476C466.478 257.607 464.69 266.994 461.369 275.792C459.504 280.031 456.239 283.499 452.122 285.613C447.013 288.171 442.951 285 442.926 279.27C442.736 273.255 443.303 267.24 444.612 261.367C448.637 245.204 455.393 229.85 464.588 215.969C467.602 211.441 472.379 208.065 476.339 204.178L478.076 205.124Z" fill="#141A21"/>
<path d="M1126.03 181.107C1123.22 193.001 1120.56 203.231 1118.36 213.564C1116.55 222.311 1115.32 231.161 1113.84 239.985C1112.36 248.808 1110.9 257.3 1109.5 265.97C1108.68 271.086 1107.79 276.201 1107.33 281.316C1107.18 286.179 1105.66 290.901 1102.95 294.937C1100.24 298.974 1096.44 302.161 1092 304.131C1087.35 306.305 1079.79 299.629 1079.87 293.209C1080.12 290.103 1080.54 287.013 1081.12 283.951C1082.98 269.986 1084.29 255.816 1086.79 242.056C1089.01 229.677 1092.59 217.58 1095.53 205.328C1096.93 199.471 1098.44 193.64 1099.59 187.732C1100.43 183.486 1102.52 181.159 1106.97 181.184C1112.95 181.133 1118.87 181.107 1126.03 181.107Z" fill="#141A21"/>
<path d="M953.112 276.84C955.283 257.377 959.932 241.033 970.815 227.043C973.369 223.718 975.924 224.332 976.716 227.836C978.682 235.509 983.868 240.803 988.645 246.609C990.295 249.105 991.018 252.1 990.689 255.075C990.324 259.461 989.317 263.77 987.7 267.863C984.788 275.255 981.416 282.493 977.839 289.603C976.532 291.804 974.73 293.669 972.577 295.051C966.191 299.527 960.239 297.992 957.25 290.652C955.56 286.147 954.177 281.533 953.112 276.84Z" fill="#141A21"/>
<path d="M873.13 149.955C876.153 149.989 879.138 150.642 881.899 151.875C884.661 153.107 887.141 154.892 889.187 157.121C891.233 159.349 892.802 161.973 893.797 164.832C894.791 167.69 895.191 170.722 894.971 173.741C893.95 185.609 890.808 197.22 882.199 206.454C875.353 213.768 861.763 215.457 854.304 209.165C853.462 208.247 852.834 207.154 852.463 205.965C852.092 204.775 851.988 203.519 852.158 202.285C853.461 195.507 855.606 188.883 857.267 182.181C859.821 172.82 861.686 163.28 864.93 154.047C865.62 152.078 870.295 151.336 873.13 149.955Z" fill="#141A21"/>
<path d="M227.351 289.219C225.373 285.977 223.714 282.551 222.395 278.989C221.195 274.641 219.841 271.316 214.502 271.725C212.452 271.912 210.547 272.866 209.169 274.398C207.791 275.929 207.041 277.925 207.068 279.986C207.093 287.959 207.639 295.922 208.703 303.824C209.052 306.087 209.547 308.325 210.185 310.525C202.087 313.261 198.204 311.087 195.113 303.721C191.886 295.66 190.915 286.871 192.303 278.298C194.398 263.208 198.077 248.399 207.963 236.225C210.764 232.855 214.246 230.118 218.181 228.194C224.158 225.304 230.953 229.984 233.201 236.941C235.983 246.623 236.141 256.872 233.661 266.635C232.128 274.001 231.106 281.47 229.957 288.912L227.351 289.219Z" fill="#141A21"/>
</svg>
