<svg width="800" height="238" viewBox="0 0 800 238" fill="none" xmlns="http://www.w3.org/2000/svg">
<g clip-path="url(#clip0_49_1475)">
<path d="M770.356 238H29.6445C13.3485 238 0.015625 224.613 0.015625 208.25V29.7538C0.015625 13.3915 13.3485 0.00439453 29.6445 0.00439453H770.356C786.652 0.00439453 799.985 13.3915 799.985 29.7538V208.25C799.985 224.613 786.652 238 770.356 238Z" fill="#100F0D"/>
<path d="M770.356 0.00439453H29.6445C13.3485 0.00439453 0.015625 13.3915 0.015625 29.7538V208.25C0.015625 224.613 13.3485 238 29.6445 238H770.356C786.652 238 799.985 224.613 799.985 208.25V29.7538C799.985 13.3915 786.652 0.00439453 770.356 0.00439453ZM770.356 4.7619C784.08 4.7619 795.244 15.974 795.244 29.7538V208.25C795.244 222.03 784.08 233.242 770.356 233.242H29.6445C15.9205 233.242 4.75874 222.03 4.75874 208.25V29.7538C4.75874 15.974 15.9205 4.7619 29.6445 4.7619H770.356Z" fill="#A2A2A1"/>
<path d="M633.689 178.501H644.746V104.115H633.689V178.501ZM733.285 130.913L720.609 163.161H720.23L707.075 130.913H695.165L714.897 175.984L703.645 201.057H715.176L745.581 130.915L733.285 130.913ZM670.573 170.052C666.959 170.052 661.904 168.232 661.904 163.735C661.904 157.994 668.197 155.793 673.625 155.793C678.485 155.793 680.778 156.843 683.729 158.28C682.87 165.171 676.961 170.052 670.573 170.052ZM671.913 129.286C663.907 129.286 655.617 132.828 652.186 140.674L661.999 144.788C664.097 140.674 668.002 139.336 672.102 139.336C677.821 139.336 683.634 142.778 683.729 148.904V149.669C681.726 148.521 677.435 146.799 672.197 146.799C661.614 146.799 650.846 152.634 650.846 163.544C650.846 173.496 659.522 179.909 669.24 179.909C676.671 179.909 680.778 176.559 683.343 172.634H683.729V178.379H694.407V149.859C694.407 136.653 684.582 129.286 671.913 129.286ZM603.575 139.968H587.848V114.472H603.575C611.842 114.472 616.534 121.342 616.534 127.219C616.534 132.984 611.841 139.968 603.575 139.968ZM603.29 104.117H576.795V178.503H587.848V150.322H603.291C615.546 150.322 627.593 141.416 627.593 127.222C627.593 113.031 615.545 104.117 603.29 104.117ZM458.815 170.064C451.176 170.064 444.782 163.64 444.782 154.825C444.782 145.907 451.176 139.392 458.815 139.392C466.357 139.392 472.275 145.907 472.275 154.825C472.275 163.64 466.357 170.064 458.815 170.064ZM471.511 135.077H471.129C468.648 132.106 463.872 129.422 457.861 129.422C445.257 129.422 433.706 140.543 433.706 154.825C433.706 169.009 445.257 180.033 457.861 180.033C463.872 180.033 468.648 177.348 471.129 174.283H471.511V177.922C471.511 187.607 466.357 192.781 458.051 192.781C451.275 192.781 447.074 187.893 445.354 183.772L435.714 187.797C438.48 194.504 445.829 202.751 458.051 202.751C471.037 202.751 482.016 195.081 482.016 176.388V130.955H471.512L471.511 135.077ZM489.654 178.499H500.724V104.113H489.654V178.499ZM517.05 153.96C516.765 144.182 524.596 139.199 530.226 139.199C534.619 139.199 538.338 141.405 539.584 144.566L517.05 153.96ZM551.417 145.523C549.318 139.871 542.922 129.422 529.843 129.422C516.858 129.422 506.071 139.678 506.071 154.727C506.071 168.914 516.765 180.033 531.082 180.033C542.633 180.033 549.318 172.942 552.088 168.819L543.496 163.067C540.631 167.285 536.718 170.065 531.082 170.065C525.453 170.065 521.441 167.476 518.867 162.395L552.563 148.401L551.417 145.523ZM282.933 137.187V147.922H308.517C307.753 153.961 305.749 158.369 302.693 161.437C298.969 165.174 293.145 169.298 282.932 169.298C267.18 169.298 254.866 156.549 254.866 140.733C254.866 124.917 267.18 112.167 282.932 112.167C291.429 112.167 297.633 115.523 302.216 119.837L309.76 112.262C303.362 106.129 294.866 101.432 282.932 101.432C261.354 101.432 243.215 119.07 243.215 140.733C243.215 162.395 261.354 180.033 282.932 180.033C294.578 180.033 303.362 176.198 310.234 169.01C317.299 161.916 319.496 151.948 319.496 143.895C319.496 141.405 319.303 139.105 318.922 137.187H282.933ZM348.586 170.064C340.947 170.064 334.359 163.738 334.359 154.727C334.359 145.621 340.947 139.392 348.586 139.392C356.222 139.392 362.81 145.621 362.81 154.727C362.81 163.738 356.222 170.064 348.586 170.064ZM348.586 129.422C334.644 129.422 323.285 140.061 323.285 154.727C323.285 169.298 334.644 180.033 348.586 180.033C362.523 180.033 373.884 169.298 373.884 154.727C373.884 140.061 362.523 129.422 348.586 129.422ZM403.773 170.064C396.139 170.064 389.549 163.738 389.549 154.727C389.549 145.621 396.139 139.392 403.773 139.392C411.412 139.392 417.997 145.621 417.997 154.727C417.997 163.738 411.412 170.064 403.773 170.064ZM403.773 129.422C389.836 129.422 378.477 140.061 378.477 154.727C378.477 169.298 389.836 180.033 403.773 180.033C417.715 180.033 429.074 169.298 429.074 154.727C429.074 140.061 417.715 129.422 403.773 129.422Z" fill="white"/>
<path d="M122.764 115.575L59.6799 182.807C59.6823 182.821 59.687 182.833 59.6893 182.847C61.624 190.148 68.2653 195.523 76.147 195.523C79.2978 195.523 82.2559 194.668 84.7928 193.167L84.9943 193.048L156.008 151.904L122.764 115.575Z" fill="#EB3131"/>
<path d="M186.591 104.129L186.531 104.087L155.872 86.2415L121.331 117.103L155.992 151.9L186.489 134.232C191.836 131.334 195.465 125.674 195.465 119.148C195.465 112.668 191.885 107.036 186.591 104.129Z" fill="#F6B60B"/>
<path d="M59.6711 55.2014C59.2919 56.6056 59.0925 58.0764 59.0925 59.6037V178.41C59.0925 179.934 59.2895 181.41 59.6735 182.809L124.936 117.295L59.6711 55.2014Z" fill="#5778C5"/>
<path d="M123.231 119.007L155.886 86.229L84.9523 44.9354C82.374 43.3849 79.3648 42.49 76.1448 42.49C68.263 42.49 61.6128 47.8754 59.6777 55.1845C59.6753 55.1917 59.6753 55.1966 59.6753 55.2028L123.231 119.007Z" fill="#3BAD49"/>
<path d="M280.858 58.2003H263.571V62.4955H276.525C276.173 66.0006 274.784 68.7524 272.442 70.7512C270.099 72.7503 267.108 73.7541 263.571 73.7541C259.692 73.7541 256.405 72.3969 253.711 69.7011C251.072 66.9492 249.729 63.5463 249.729 59.4466C249.729 55.3472 251.072 51.9442 253.711 49.1926C256.405 46.4967 259.692 45.1485 263.571 45.1485C265.562 45.1485 267.46 45.4924 269.201 46.2456C270.942 46.9983 272.34 48.049 273.432 49.3973L276.719 46.0969C275.228 44.3953 273.34 43.094 270.997 42.1456C268.654 41.1972 266.21 40.742 263.571 40.742C258.395 40.742 254.007 42.5454 250.423 46.1435C246.84 49.7503 245.044 54.1943 245.044 59.4467C245.044 64.6991 246.84 69.1527 250.423 72.7508C254.007 76.3481 258.395 78.1523 263.571 78.1523C269.006 78.1523 273.339 76.4042 276.673 72.8526C279.608 69.8967 281.107 65.8991 281.107 60.8975C281.107 60.0514 281.006 59.1487 280.858 58.2003ZM287.555 41.5408V77.3521H308.378V72.9546H292.138V61.5943H306.786V57.2991H292.138V45.9477H308.378V41.5406L287.555 41.5408ZM337.577 45.9479V41.5408H313.068V45.9479H323.031V77.352H327.614V45.9479H337.577ZM359.766 41.5408H355.183V77.3521H359.766V41.5408ZM390.017 45.9479V41.5408H365.509V45.9479H375.471V77.352H380.054V45.9479H390.017ZM436.266 46.1989C432.729 42.5451 428.396 40.7417 423.22 40.7417C418.035 40.7417 413.702 42.5451 410.165 46.1431C406.628 49.6946 404.888 54.1476 404.888 59.4464C404.888 64.7452 406.628 69.1988 410.165 72.7505C413.702 76.3478 418.035 78.152 423.22 78.152C428.349 78.152 432.729 76.3479 436.266 72.7505C439.803 69.199 441.544 64.7456 441.544 59.4464C441.544 54.194 439.803 49.7498 436.266 46.1989ZM413.452 49.1923C416.091 46.4964 419.332 45.1482 423.22 45.1482C427.1 45.1482 430.341 46.4964 432.933 49.1923C435.572 51.8418 436.868 55.2997 436.868 59.4463C436.868 63.6023 435.572 67.0509 432.933 69.7007C430.34 72.3966 427.1 73.7538 423.22 73.7538C419.332 73.7538 416.091 72.3966 413.452 69.7007C410.868 66.9953 409.573 63.6022 409.573 59.4463C409.573 55.2998 410.868 51.8975 413.452 49.1923ZM452.433 55.0494L452.238 48.1414H452.433L470.562 77.3517H475.349V41.5404H470.765V62.4951L470.96 69.4031H470.765L453.433 41.5404H447.849V77.3517H452.433V55.0494Z" fill="white" stroke="white" stroke-width="0.26666" stroke-miterlimit="10"/>
</g>
<defs>
<clipPath id="clip0_49_1475">
<rect width="800" height="238" fill="white"/>
</clipPath>
</defs>
</svg>
