<svg width="842" height="596" viewBox="0 0 842 596" fill="none" xmlns="http://www.w3.org/2000/svg">
<mask id="mask0_144_1375" style="mask-type:luminance" maskUnits="userSpaceOnUse" x="103" y="111" width="637" height="373">
<path d="M739.33 111.94H103.17V483.2H739.33V111.94Z" fill="white"/>
</mask>
<g mask="url(#mask0_144_1375)">
<path d="M189.22 143.69C200.91 143.69 211 145.25 219.48 148.34C227.96 151.44 234.96 155.49 240.46 160.5C245.96 165.51 249.97 171.05 252.49 177.12C255.01 183.2 256.28 189.22 256.28 195.18C256.28 200.67 255.36 205.49 253.53 209.66C251.69 213.83 249.28 217.34 246.3 220.2C243.32 223.06 239.89 225.27 235.99 226.82C232.09 228.37 228.19 229.14 224.3 229.14C214.67 229.14 207.45 225.63 202.63 218.6C197.81 211.57 195.4 203.41 195.4 194.11C204.8 194.35 211.28 192.27 214.83 187.85C218.38 183.45 219.69 178.5 218.79 173.01C217.87 167.53 214.95 162.46 210.02 157.82C205.09 153.17 198.72 150.85 190.93 150.85C184.51 150.85 178.84 152.52 173.91 155.86C168.98 159.2 164.91 163.55 161.7 168.91C158.49 174.27 156.08 180.47 154.48 187.5C152.87 194.53 152.07 201.86 152.07 209.49C152.07 218.07 153.15 226.53 155.34 234.87C157.51 243.22 160.78 250.6 165.14 257.03C169.49 263.47 175.12 268.71 182 272.76C188.87 276.81 196.9 278.84 206.07 278.84C216.61 278.84 226.47 275.68 235.64 269.36C244.81 263.05 251.34 253.69 255.24 241.3H258.68C257.76 250.84 255.07 259.48 250.6 267.22C246.13 274.97 240.63 281.58 234.09 287.06C227.56 292.55 220.34 296.83 212.42 299.93C204.51 303.02 196.54 304.58 188.52 304.58C177.28 304.58 166.91 302.37 157.39 297.96C147.87 293.56 139.73 287.6 132.97 280.09C126.2 272.59 120.93 263.83 117.15 253.82C113.36 243.81 111.48 233.09 111.48 221.64C111.48 211.87 113.02 202.34 116.12 193.04C119.21 183.74 123.97 175.4 130.39 168.01C136.8 160.63 144.89 154.73 154.63 150.32C164.4 145.9 175.92 143.69 189.22 143.69Z" fill="#141A21" stroke="#141A21" stroke-width="0.1628" stroke-miterlimit="10"/>
<path d="M263.33 300.97V298.58H264.14C267.22 298.58 269.67 294.24 271.49 285.54C273.31 276.85 274.21 264.85 274.21 249.54V194.52C274.21 179.21 273.3 167.21 271.49 158.51C269.67 149.82 267.22 145.47 264.14 145.47H263.33V143.08H306.89V249.53C306.89 264.84 307.79 276.84 309.61 285.53C311.43 294.23 313.87 298.57 316.96 298.57H317.78V300.96H263.33V300.97ZM324.85 235.13C324.85 227.02 326.07 219.12 328.52 211.4C330.97 203.69 334.73 196.77 339.82 190.64C344.9 184.51 351.3 179.62 359.02 175.96C366.74 172.3 375.86 170.47 386.38 170.47C398.9 170.47 409.11 172.64 417.01 177C424.91 181.35 430.8 186.69 434.7 193.01C438.6 199.34 440.6 206.01 440.69 213.03C440.78 220.05 439.28 226.14 436.19 231.27C432.93 236.81 428.38 240.41 422.58 242.09C416.77 243.78 410.64 244.96 404.2 245.65C397.75 246.34 391.49 247.28 385.41 248.47C379.33 249.66 374.38 252.53 370.57 257.07C369.48 258.65 368.71 260.33 368.25 262.12C367.8 263.9 368.02 265.38 368.93 266.57C372.2 271.72 376.42 275.72 381.59 278.59C386.76 281.46 392.8 282.89 399.7 282.89C403.51 282.89 407.41 282.15 411.41 280.67C415.4 279.19 419.17 277.11 422.71 274.44C426.25 271.77 429.42 268.51 432.24 264.65C435.06 260.8 437.18 256.4 438.64 251.45H441.36C440.63 259.36 438.51 266.53 434.96 272.95C431.42 279.37 427.06 284.86 421.89 289.42C416.72 293.97 411 297.53 404.74 300.1C398.48 302.67 392.17 303.95 385.82 303.95C376.93 303.95 368.71 302.12 361.18 298.46C353.65 294.8 347.2 289.86 341.85 283.63C336.49 277.4 332.32 270.14 329.32 261.83C326.35 253.52 324.85 244.62 324.85 235.13ZM365.15 260.04C365.88 256.08 367.47 252.77 369.92 250.11C372.37 247.44 375.23 245.02 378.49 242.84C381.76 240.67 385.25 238.49 388.97 236.31C392.69 234.14 396.14 231.56 399.32 228.6C402.49 225.63 405.08 222.03 407.08 217.78C409.08 213.53 410.08 208.24 410.08 201.91C410.08 193.61 407.8 187.28 403.28 182.93C398.74 178.58 393.57 176.4 387.76 176.4C382.13 176.4 377.32 177.98 373.33 181.14C369.34 184.31 366.16 188.31 363.8 193.16C361.44 198.01 359.72 203.29 358.63 209.02C357.55 214.76 357 220.1 357 225.04C357 231.17 357.68 237.25 359.04 243.28C360.38 249.32 362.43 254.9 365.15 260.04ZM521.14 300.97V279.02C519.32 285.15 516.29 290.14 512.02 294C507.75 297.85 502.9 300.58 497.46 302.16C492.02 303.74 486.34 304.23 480.44 303.64C474.54 303.04 469.18 301.42 464.38 298.75C459.57 296.08 455.58 292.42 452.4 287.77C449.22 283.13 447.64 277.54 447.64 271.01C447.64 263.5 449.46 257.86 453.08 254.11C456.71 250.35 461.25 247.49 466.7 245.51C472.14 243.53 478.03 242.05 484.39 241.06C490.74 240.07 496.64 238.84 502.08 237.35C507.52 235.87 512.06 233.59 515.7 230.53C519.33 227.46 521.14 222.87 521.14 216.74C521.14 204.28 519.46 194.3 516.11 186.78C512.75 179.27 506.99 175.51 498.82 175.51C493.2 175.51 488.56 177.14 484.93 180.4C481.3 183.66 479.17 187.27 478.53 191.22C477.89 195.18 478.89 198.74 481.52 201.9C484.15 205.06 488.82 206.54 495.55 206.35C495.55 213.07 493.86 218.91 490.51 223.85C487.15 228.79 482.02 231.26 475.13 231.26C472.41 231.26 469.68 230.72 466.96 229.63C464.24 228.55 461.79 227.01 459.61 225.03C457.43 223.05 455.71 220.54 454.44 217.46C453.16 214.4 452.54 210.98 452.54 207.23C452.54 202.88 453.44 198.53 455.26 194.18C457.08 189.83 459.89 185.88 463.7 182.32C467.51 178.76 472.41 175.89 478.4 173.72C484.39 171.55 491.56 170.46 499.91 170.46C518.06 170.46 531.54 174.86 540.34 183.66C549.14 192.46 553.64 206.75 553.81 226.52V237.2C553.81 256.18 554.72 271.06 556.53 281.84C558.35 292.62 560.79 298 563.88 298H564.7V300.97H521.14ZM521.14 233.05C517.33 237.8 513.11 241.26 508.48 243.43C503.85 245.61 499.54 247.73 495.55 249.8C491.55 251.88 488.2 254.3 485.48 257.07C482.76 259.85 481.4 264.19 481.4 270.12C481.4 273.09 481.8 276.01 482.63 278.87C483.45 281.74 484.62 284.36 486.17 286.73C487.71 289.1 489.48 290.99 491.48 292.37C493.48 293.75 495.65 294.44 498.01 294.44C500.73 294.44 503.46 293.5 506.18 291.62C508.9 289.74 511.35 286.98 513.53 283.32C515.7 279.66 517.52 275.02 518.97 269.38C520.42 263.75 521.14 257.18 521.14 249.66V233.05ZM616.16 173.44V205.77C618.7 199.24 621.6 193.76 624.87 189.31C628.14 184.86 631.54 181.26 635.08 178.49C638.62 175.72 642.25 173.69 645.97 172.41C649.69 171.13 653.28 170.48 656.73 170.48C664.53 170.48 670.66 172.81 675.1 177.45C679.55 182.1 681.77 188.87 681.77 197.76V238.98C681.77 257.97 682.68 272.55 684.5 282.73C686.32 292.92 688.76 298 691.85 298H692.39V300.97H638.2V298.01H639.01C642.09 298.01 644.54 292.92 646.36 282.74C648.18 272.56 649.08 257.98 649.08 238.99V195.39C649.08 191.83 648.49 189.21 647.31 187.53C646.13 185.86 644.54 185.01 642.55 185.01C640.19 185.01 637.47 186.25 634.38 188.72C631.29 191.19 628.39 194.7 625.67 199.25C622.95 203.8 620.68 209.29 618.86 215.72C617.04 222.15 616.14 229.31 616.14 237.22C616.14 256.2 617.04 271.08 618.86 281.86C620.67 292.64 623.12 298.03 626.21 298.03H626.75V301H572.57V298.03H573.38C576.46 298.03 578.91 292.59 580.73 281.72C582.54 270.85 583.45 256.02 583.45 237.23C583.45 218.25 582.54 203.37 580.73 192.59C578.91 181.82 576.46 176.43 573.38 176.43H572.57V173.46H616.16V173.44Z" fill="#141A21" stroke="#141A21" stroke-width="0.1628" stroke-miterlimit="10"/>
<path d="M738.77 156.48C707.53 156.48 698.74 146.6 698.74 111.5C698.74 146.61 689.95 156.48 658.72 156.48C689.96 156.48 698.74 166.36 698.74 201.46C698.75 166.35 707.54 156.48 738.77 156.48Z" fill="#141A21" stroke="#141A21" stroke-width="0.1628" stroke-miterlimit="10"/>
<path d="M276.54 322.23C288.23 322.23 298.32 323.79 306.8 326.88C315.28 329.98 322.28 334.03 327.78 339.04C333.28 344.05 337.29 349.59 339.81 355.66C342.33 361.74 343.6 367.76 343.6 373.72C343.6 379.21 342.68 384.03 340.85 388.2C339.01 392.37 336.6 395.88 333.62 398.74C330.64 401.6 327.21 403.81 323.31 405.36C319.41 406.91 315.51 407.68 311.62 407.68C301.99 407.68 294.77 404.17 289.95 397.14C285.13 390.11 282.73 381.95 282.73 372.65C292.13 372.89 298.61 370.81 302.16 366.39C305.71 361.99 307.02 357.04 306.12 351.55C305.2 346.07 302.28 341 297.35 336.36C292.42 331.71 286.05 329.39 278.26 329.39C271.84 329.39 266.17 331.06 261.24 334.4C256.31 337.74 252.24 342.09 249.03 347.45C245.82 352.81 243.41 359.01 241.81 366.04C240.2 373.07 239.4 380.4 239.4 388.03C239.4 396.61 240.48 405.07 242.67 413.41C244.84 421.76 248.11 429.14 252.47 435.57C256.82 442.01 262.45 447.25 269.33 451.3C276.2 455.35 284.23 457.37 293.4 457.37C303.94 457.37 313.8 454.21 322.97 447.9C332.14 441.59 338.67 432.23 342.57 419.84H346.01C345.09 429.38 342.4 438.02 337.93 445.76C333.46 453.51 327.96 460.12 321.42 465.6C314.89 471.09 307.67 475.37 299.75 478.47C291.84 481.56 283.87 483.12 275.85 483.12C264.61 483.12 254.24 480.91 244.72 476.5C235.2 472.1 227.06 466.14 220.3 458.63C213.53 451.13 208.26 442.37 204.48 432.36C200.69 422.35 198.81 411.63 198.81 400.18C198.81 390.41 200.35 380.88 203.45 371.58C206.54 362.28 211.3 353.94 217.72 346.55C224.13 339.17 232.22 333.27 241.96 328.86C251.72 324.43 263.24 322.23 276.54 322.23Z" fill="#141A21" stroke="#141A21" stroke-width="0.1628" stroke-miterlimit="10"/>
<path d="M432.05 480.5V451.12C430.22 455.16 428.16 459.14 425.87 463.08C423.58 467.02 420.88 470.47 417.77 473.45C414.65 476.43 410.99 478.82 406.79 480.65C402.57 482.47 397.63 483.39 391.95 483.39C387.92 483.39 384.13 482.82 380.55 481.66C376.98 480.51 373.96 478.54 371.49 475.76C369.02 472.98 367.05 469.33 365.59 464.81C364.12 460.3 363.39 454.68 363.39 447.96V418.57C363.39 400.13 362.47 385.68 360.64 375.21C358.81 364.74 356.34 359.51 353.23 359.51H352.4V356.63H396.07V450.25C396.07 451.6 396.16 453.52 396.34 456.01C396.52 458.51 396.98 460.96 397.72 463.36C398.45 465.76 399.5 467.83 400.88 469.55C402.26 471.28 404.04 472.14 406.24 472.14C412.1 472.14 416.81 469.36 420.38 463.79C423.95 458.22 426.65 451.26 428.49 442.9C430.32 434.54 431.37 425.52 431.65 415.82C431.92 406.13 431.65 397.09 430.82 388.74C430 380.39 428.81 373.43 427.25 367.85C425.69 362.28 423.9 359.49 421.89 359.49H421.07V356.61H465.01V418.54C465.01 436.79 465.92 451.19 467.76 461.75C469.59 472.32 472.06 477.6 475.17 477.6H476V480.48H432.05V480.5Z" fill="#141A21" stroke="#141A21" stroke-width="0.1628" stroke-miterlimit="10"/>
<path d="M557.01 438.15V370.9C557.01 366.87 556.36 364.47 555.09 363.7C553.81 362.94 550.79 362.55 546.03 362.55V356.62C549.14 356.62 552.8 355.81 557.02 354.17C561.23 352.54 565.35 350.42 569.38 347.83C573.4 345.24 577.02 342.17 580.23 338.61C583.43 335.06 585.4 331.46 586.13 327.81H589.97V356.62H603.98V362.55H589.97V433.25C589.97 445.54 590.48 455.48 591.49 463.07C592.49 470.66 594.55 474.44 597.67 474.44C599.5 474.44 601.6 473.19 603.98 470.69L605.08 473.28C604.17 475.01 601.65 477.12 597.53 479.62C593.41 482.11 588.78 483.36 583.66 483.36C573.77 483.36 566.86 479.9 562.93 472.99C558.97 466.1 557.01 454.47 557.01 438.15Z" fill="#141A21" stroke="#141A21" stroke-width="0.1628" stroke-miterlimit="10"/>
<path d="M484.46 480V477.61H485.27C488.33 477.61 490.75 473.27 492.55 464.58C494.35 455.9 495.25 443.9 495.25 428.59V373.59C495.25 358.29 494.35 346.29 492.55 337.6C490.75 328.92 488.33 324.57 485.27 324.57H484.46V322.18H527.61V428.6C527.61 443.9 528.51 455.9 530.31 464.59C532.1 473.29 534.53 477.62 537.59 477.62H538.4V480.01L484.46 480Z" fill="#141A21" stroke="#141A21" stroke-width="0.1628" stroke-miterlimit="10"/>
</g>
</svg>
