<svg width="631" height="90" viewBox="0 0 631 90" fill="none" xmlns="http://www.w3.org/2000/svg">
<g clip-path="url(#clip0_144_1504)">
<path d="M533.9 1.2998H496.9V88.7998H533.9V1.2998Z" fill="#141A21"/>
<path d="M0 1.2998V35.1998H26.9V88.6998H64V35.1998H90.9V1.2998H0Z" fill="#141A21"/>
<path d="M154 29.1998H134.8V1.2998H97.7998V88.6998H134.8V59.6998H154V88.6998H191V1.2998H154V29.1998Z" fill="#141A21"/>
<path d="M474.9 33.5002C474 33.0002 473.1 32.5002 472.2 32.1002L486.9 1.2002H435.7C426.2 1.2002 419.9 2.5002 415.3 5.2002C410.8 7.80019 407.2 11.4002 404.6 16.0002C402 20.5002 400.6 25.5002 400.6 30.9002C400.6 36.2002 401.9 41.3002 404.6 45.8002C407.2 50.3002 410.8 53.9002 415.4 56.6002C416.3 57.1002 417.2 57.6002 418.1 58.0002L403.4 88.9002H455.6C464.3 88.9002 470.5 87.6002 475 84.9002C479.5 82.3002 483.1 78.7002 485.8 74.1002C488.4 69.6002 489.8 64.6002 489.8 59.2002C489.8 53.9002 488.5 48.9002 485.8 44.3002C483.1 39.8002 479.4 36.1002 474.9 33.5002Z" fill="#141A21"/>
<path d="M372.2 1.2998H323.3L292.6 88.7998H329.8L334.4 73.7998H361.3L365.9 88.7998H403.1L372.2 1.2998ZM341.4 50.7998L347.8 29.9998L354.2 50.7998H341.4Z" fill="#141A21"/>
<path d="M255.5 88.7002H292.5L274.4 55.7002C281.5 52.0002 289.7 42.7002 289.7 28.7002C289.7 14.5002 278.5 1.2002 254.8 1.2002H199.2V88.7002H236.2V61.4002H240.4L255.5 88.7002ZM236.2 25.8002H243.4C247.6 25.8002 250.6 28.8002 250.6 32.5002C250.6 36.2002 247.7 39.2002 243.5 39.2002H236.3V25.8002H236.2Z" fill="#141A21"/>
<path d="M585.2 0C560.3 0 540.2 20.1 540.2 45C540.2 69.9 560.3 90 585.2 90C610.1 90 630.2 69.9 630.2 45C630.2 20.1 610.1 0 585.2 0ZM592.5 52.3H577.9V37.7H592.5V52.3Z" fill="#141A21"/>
</g>
<defs>
<clipPath id="clip0_144_1504">
<rect width="630.2" height="90" fill="white"/>
</clipPath>
</defs>
</svg>
