<svg width="389" height="446" viewBox="0 0 389 446" fill="none" xmlns="http://www.w3.org/2000/svg">
<g clip-path="url(#clip0_144_1330)">
<path d="M283.141 216.629V110.863C283.141 108.059 280.845 105.766 278.039 105.766C275.233 105.766 272.938 108.059 272.938 110.863V170.754C272.938 196.113 252.404 216.629 227.023 216.629C201.642 216.629 181.108 196.113 181.108 170.754V110.863C181.108 108.059 178.812 105.766 176.007 105.766C173.201 105.766 170.905 108.059 170.905 110.863V216.629H130.092V110.863C130.092 85.5046 150.626 64.9886 176.007 64.9886C201.387 64.9886 221.921 85.5046 221.921 110.863V170.754C221.921 173.558 224.217 175.851 227.023 175.851C229.829 175.851 232.125 173.558 232.125 170.754V110.863C232.125 85.5046 252.659 64.9886 278.039 64.9886C303.42 64.9886 323.954 85.5046 323.954 110.863V216.629H283.141ZM107.772 87.2886C107.772 75.0554 97.6964 64.9886 85.4525 64.9886C73.2085 64.9886 63.1328 75.0554 63.1328 87.2886C63.1328 99.5217 73.2085 109.589 85.4525 109.589C97.6964 109.589 107.772 99.5217 107.772 87.2886ZM105.859 216.629V122.331H65.0459V216.629H105.859ZM389 360.623V85.3771C389 38.356 350.61 0 303.548 0H85.4525C38.3898 0 0 38.356 0 85.3771V360.623C0 407.644 38.3898 446 85.4525 446H207.892V405.223H85.4525C60.837 405.223 40.8131 385.217 40.8131 360.623V85.3771C40.8131 60.7834 60.837 40.7771 85.4525 40.7771H303.548C328.163 40.7771 348.187 60.7834 348.187 85.3771V360.623C348.187 385.217 328.163 405.223 303.548 405.223C278.932 405.223 258.908 385.217 258.908 360.623V275.246C258.908 249.887 238.374 229.371 212.993 229.371C187.613 229.371 167.079 249.887 167.079 275.246V335.137C167.079 337.941 164.783 340.234 161.977 340.234C159.171 340.234 156.875 337.941 156.875 335.137V275.246C156.875 249.887 136.341 229.371 110.961 229.371C85.58 229.371 65.0459 249.887 65.0459 275.246V381.011H105.859V275.246C105.859 272.442 108.155 270.149 110.961 270.149C113.767 270.149 116.062 272.442 116.062 275.246V335.137C116.062 360.495 136.596 381.011 161.977 381.011C187.358 381.011 207.892 360.495 207.892 335.137V275.246C207.892 272.442 210.188 270.149 212.993 270.149C215.799 270.149 218.095 272.442 218.095 275.246V360.623C218.095 407.644 256.485 446 303.548 446C350.61 446 389 407.644 389 360.623ZM325.867 251.671C325.867 239.438 315.791 229.371 303.548 229.371C291.304 229.371 281.228 239.438 281.228 251.671C281.228 263.905 291.304 273.971 303.548 273.971C315.791 273.971 325.867 263.905 325.867 251.671ZM323.954 381.011V286.714H283.141V381.011H323.954Z" fill="#141A21"/>
</g>
<defs>
<clipPath id="clip0_144_1330">
<rect width="389" height="446" fill="white"/>
</clipPath>
</defs>
</svg>
