<svg width="1290" height="650" viewBox="0 0 1290 650" fill="none" xmlns="http://www.w3.org/2000/svg">
<path d="M557.666 526.924L549.912 583.301L550.469 583.857L545.41 620.332V624.004L546.152 625.459L547.568 626.934L549.033 627.666H551.181L552.617 626.934L554.053 626.182L555.517 624.727L556.23 623.271L561.972 586.045L569.902 528.379L590.771 468.525L615.976 526.924L628.926 583.135L622.431 583.857H626.767L628.926 583.135L644.023 648.076H8.42773V561.24H472.705L438.144 624.727L437.451 626.182V629.824L438.144 631.309L439.629 632.764L441.035 633.486L443.193 634.219L444.629 633.486L446.084 632.764L447.519 632.031L485.674 562.695L513.027 511.611L556.23 464.16L557.666 526.924ZM670.664 505.02L701.631 553.174L696.582 556.836L690.117 559.746L687.724 561.25L687.939 561.23H707.402L726.094 588.945L727.529 590.4L728.271 591.885L730.4 592.607H731.865L734.013 591.885L735.478 590.4L736.172 588.945L736.914 587.49V586.035L736.172 583.848L721.787 561.23H1260.93V648.066H655.556L639.717 580.186L627.48 523.242L625.332 460.488L670.664 505.02ZM502.236 506.475L474.883 556.836L462.627 549.551L451.142 540.771L440.342 532.002L430.244 521.787L420.908 511.592L464.804 473.613L521.67 445.146L502.236 506.475ZM906.797 243.691L917.588 223.984L929.844 206.484L944.228 189.688L960.771 175.107L978.047 162.676L997.48 151.758L1017.64 142.998L1039.23 136.416L1061.53 132.754L1084.56 131.299L1116.22 134.209L1146.44 141.494L1175.26 153.896L1201.19 169.961L1224.21 189.668L1243.67 213.037L1260.23 239.297L1271.75 268.516L1279.64 299.17V299.248L1281.8 332.109V345.967L1281.08 353.271L1280.36 359.844L1278.92 367.129H993.867L998.916 378.076L1004.69 387.588L1011.86 397.051L1019.79 405.088L1029.12 412.393L1038.49 418.965L1049.28 423.359L1060.07 427.002L1072.3 429.209L1084.53 429.932H1090.3L1096.79 429.209L1103.27 428.477L1109.04 427.002L1114.8 425.547L1120.57 423.359L1126.35 420.42L1131.37 417.51L1136.42 414.6L1141.47 410.957H1265.99L1255.9 432.119L1242.95 451.104L1228.54 468.623L1212 484.688L1194 498.545L1174.57 510.225L1153.7 519.736L1131.37 526.309L1108.35 530.684L1084.58 532.139L1061.55 531.406L1039.25 527.041L1018.38 521.191L998.203 512.451L979.482 501.484L961.513 489.053L945.664 474.443L931.26 458.408L918.31 440.879L907.519 421.904V437.236L906.797 450.371V475.898L904.638 484.688L898.877 494.902L890.234 503.662L879.463 511.699L867.949 516.064H786.601L785.879 453.311L780.859 464.277L775.088 475.195L769.345 485.439L762.158 495.654L754.961 505.146L747.041 514.639L739.111 523.369L730.478 531.406L721.142 539.414L711.758 546.719L680.097 497.822L656.328 439.404L714.658 464.229L750.654 489.033L752.783 490.488H755.674L757.832 489.756L759.267 489.033L759.98 487.578L760.722 485.391V483.936L759.98 481.729L758.545 480.273L720.4 453.984L677.939 407.998L740.547 410.176L842.754 436.465L844.209 437.197L846.367 436.465L847.803 435.732L849.238 434.98L849.98 432.803V429.16L849.238 427.676L848.515 426.221L846.367 425.498L742.724 398.486L686.582 371.475L746.318 350.303L952.197 324.756H953.633L955.791 324.023L956.504 322.568L957.226 321.113L957.949 318.926L957.226 317.471L956.504 315.986L955.791 314.531L953.633 313.809L952.197 313.076L743.467 338.633L681.553 334.238L729.775 292.646L779.443 264.902L780.879 268.564L783.037 271.484L784.492 275.146L785.928 278.789L787.363 281.699V261.26L867.256 215.996L868.691 215.273L870.127 213.818L870.82 212.363V208.691L869.385 207.236L868.672 205.781L866.513 205.029H862.929L787.344 247.354V134.941L820.469 94.7949L821.904 93.3398L822.617 91.1328V89.6777L821.904 88.2227L821.181 86.0156L818.31 84.5508H814.726L813.291 86.0156L786.65 116.689V56.1133L787.363 48.8086L789.521 41.5039L792.392 34.9219L795.986 28.3496L801.748 23.2227L807.49 18.125L815.42 13.7598L823.31 10.1172L833.388 7.20703L843.447 5.75195H906.797V243.691ZM1253.96 491.016C1263.42 491.018 1271.5 498.368 1271.5 508.584C1271.5 518.8 1263.51 526.248 1253.96 526.25C1244.41 526.25 1236.32 518.704 1236.32 508.584C1236.32 498.464 1244.41 491.016 1253.96 491.016ZM1253.96 493.945C1246.02 493.945 1239.81 500.09 1239.81 508.584C1239.81 517.078 1246.02 523.32 1253.96 523.32C1261.81 523.318 1268.01 516.931 1268.01 508.584C1268.01 500.237 1261.91 493.947 1253.96 493.945ZM1254.89 498.496C1259.63 498.496 1261.98 500.266 1261.98 504.268C1261.98 507.883 1259.73 509.489 1256.79 509.854L1262.48 518.809H1259.08L1253.8 510H1250.3V518.809H1247.25V498.496H1254.89ZM257.539 25.5566L291.377 35.7422L322.324 50.3613L349.658 68.6035L373.398 89.7754L394.267 113.115L410.83 136.494L423.779 159.834L433.135 181.729L438.886 201.436L443.935 197.041L448.984 192.676L454.033 189.033L459.062 185.391L464.824 180.996L470.576 178.086L476.338 174.424L482.109 170.781L487.881 167.842L493.623 164.932L515.928 218.936L528.896 280.967L476.338 245.195L322.304 83.877L321.562 82.4121L319.404 81.6895H316.553L314.355 82.4121L313.633 83.877L312.92 85.332L312.197 87.5098L312.92 88.9648L313.633 90.4297L468.32 253.906L502.168 307.178L440.986 293.32L347.412 249.541L345.996 248.809H342.383L339.511 251.719L338.789 253.174V256.846L340.224 258.301L341.66 259.775L436.679 304.316L487.06 341.543L424.424 351.035L335.176 346.66L333.74 345.938L332.304 346.66L330.888 348.125L329.433 349.6L328.711 351.055V352.539L329.433 354.717L330.176 356.182L331.611 356.904L333.047 357.637L424.453 363.486L484.912 379.551L430.195 410.928L273.261 462.744L271.133 463.496L269.697 464.229L268.974 465.684L268.261 467.871V469.326L268.974 471.533L270.439 472.988L271.875 473.711L273.281 474.443H275.459L434.551 422.627L496.465 415.322L456.855 464.98L413.681 502.91L409.375 497.061L405.068 491.24L401.455 485.391L397.861 479.541L394.248 473.691L390.654 467.842L387.783 461.27L384.912 454.688L382.041 448.115L379.883 441.533L369.785 452.5L358.271 462.695L345.322 472.91L330.224 482.402L314.355 491.162L297.099 499.17L278.359 505.752L259.638 510.85L240.234 515.244V515.312L220.771 516.768H8.42773V20.4297H220.84L257.539 25.5566ZM1250.3 501.094V507.383H1253.93C1256.49 507.383 1258.8 507.209 1258.8 504.082C1258.8 501.559 1256.55 501.094 1254.44 501.094H1250.3ZM596.513 297.734L606.611 300.615L616.67 305.01L625.332 310.137L633.232 317.412L639.717 325.449L645.478 334.209L649.795 344.453L651.943 354.639L653.408 365.586L651.943 377.266L649.795 387.5L645.478 397.695L639.717 406.455L633.232 414.512L625.332 421.074L616.67 426.895L606.611 431.289L596.513 433.467L585.029 434.932L574.209 433.467L564.131 431.289L554.053 426.895L545.41 421.074L537.49 414.512L530.312 406.455L525.283 397.695L520.928 387.5L518.056 377.266L517.363 365.586L518.056 354.639L520.928 344.453L525.283 334.209L530.312 325.449L537.49 317.412L545.41 310.137L554.053 305.01L564.131 300.615L574.209 297.734L585.029 296.982L596.513 297.734ZM130.801 395.518L201.338 396.25L221.513 394.062L241.689 389.668L259.668 381.66L276.23 371.445L291.357 358.311L303.584 342.979L314.355 326.201L321.562 307.949L326.582 288.252L328.047 267.08L326.582 245.918L321.562 226.211L314.355 207.959L303.584 191.172L291.357 175.83L276.23 162.676L259.668 152.48L241.689 144.453L221.513 139.355L201.338 137.871H130.801V395.518ZM741.201 210.859L750.576 221.074L759.199 232.021L767.138 242.988L774.326 254.668L723.222 282.402L664.179 300.635L693.711 245.176L731.865 201.367L741.201 210.859ZM1073.79 234.229L1062.99 235.684L1053.65 238.594L1044.3 242.256L1034.94 247.354L1027.02 252.451L1019.09 259.033L1012.61 266.338L1006.12 274.365L1001.07 283.125L1001.09 283.154H1169.55L1163.78 274.395L1157.29 266.357L1150.81 259.053L1142.91 252.48L1134.27 246.631L1124.93 242.256L1115.55 238.594L1105.48 235.684L1095.4 234.229L1084.58 233.496L1073.79 234.229ZM669.228 161.23L675.713 164.17L682.178 167.08L687.939 170.723L694.424 173.633L700.176 177.295L705.937 180.938L710.967 185.332L716.738 188.975L721.787 193.359L684.355 237.148L635.41 276.562L643.301 213.066L662.734 159.043L669.228 161.23ZM572.773 203.545L563.418 265.605L526.699 213.066L504.394 160.498L510.879 157.578L517.363 155.371L523.828 153.193L530.312 151.758L537.49 149.551L543.974 148.096L551.181 147.363L557.666 145.908L564.873 145.186H572.051L572.773 203.545ZM600.849 145.186H605.156L614.541 146.641L624.609 148.096L633.945 150.283L643.301 152.471L651.943 155.381L631.816 210.127L600.127 264.15L585.029 202.1L583.594 144.434H596.513L600.849 145.186Z" fill="#141A21"/>
</svg>
