<svg width="2271" height="361" viewBox="0 0 2271 361" fill="none" xmlns="http://www.w3.org/2000/svg">
<g clip-path="url(#clip0_144_1332)">
<mask id="mask0_144_1332" style="mask-type:luminance" maskUnits="userSpaceOnUse" x="-50" y="-1400" width="4370" height="3066">
<path d="M-49.5764 -1399.88V1665.9H4319.1V-1399.88" fill="white"/>
</mask>
<g mask="url(#mask0_144_1332)">
<path d="M373.212 77.6643C373.212 62.0802 371.229 50.7929 341.88 50.4722L340.293 47.8428V42.1992C340.293 39.8904 343.069 39.5056 345.846 39.5056C355.761 39.5056 375.195 41.1731 389.87 41.1731C403.354 41.1731 416.443 39.5056 431.117 39.5056C437.86 39.5056 439.843 39.5056 439.843 43.1612V48.4841C439.843 50.1516 435.877 50.4722 430.324 50.4722C416.839 50.4722 403.354 51.4984 403.354 67.7238V142.245H545.342V80.2937C545.342 57.4626 545.341 52.4603 518.768 50.4722C514.802 50.1516 514.406 49.1255 514.406 45.1493V41.1731L515.992 39.5056C526.701 40.2111 547.721 41.1731 568.345 41.1731C589.365 41.1731 598.091 40.5318 607.61 39.5056L609.196 41.5579V47.8428C609.196 50.4722 606.023 50.4722 601.264 50.4722C583.813 50.4722 575.484 53.4865 575.484 72.662V236.712C575.484 260.569 588.176 262.557 607.213 262.557C608.403 262.557 608.403 267.56 608.403 271.151C608.403 272.498 607.213 273.524 598.091 273.524C585.003 273.524 571.518 271.856 558.43 271.856C546.135 271.856 525.511 273.524 521.545 273.524C512.819 273.524 511.233 272.818 511.233 271.536V264.225L512.819 262.557C544.945 262.557 545.342 255.952 545.342 232.736V155.2H403.354V239.021C403.354 257.94 408.114 262.557 432.704 262.557C436.273 262.557 437.463 263.199 437.463 266.213V271.151C437.463 273.139 433.894 273.524 426.755 273.524C413.27 273.524 399.388 271.856 385.903 271.856C373.212 271.856 360.52 273.524 347.829 273.524C345.449 273.524 342.673 273.524 341.086 271.536V264.225L343.069 262.557C358.934 262.557 373.212 261.211 373.212 244.344V77.6643Z" fill="#141A21"/>
<path d="M699.227 203.876L666.705 218.819C661.945 220.807 650.047 227.092 650.047 235.75C650.047 244.664 654.41 261.595 665.118 261.595C677.017 261.595 688.122 249.987 696.451 242.035L699.227 239.021V203.876ZM699.624 178.736C699.624 160.523 697.244 146.542 673.051 146.542C664.325 146.542 647.667 149.235 647.667 158.855C647.667 161.164 648.461 164.499 649.254 166.487L628.63 178.416C627.44 175.722 626.647 172.451 626.647 168.475C626.647 157.829 636.959 149.556 644.098 145.58L673.844 128.328C677.81 126.02 679.396 125.058 680.983 125.058C708.349 125.058 722.627 138.269 722.627 165.461V235.75C722.627 242.676 722.627 256.593 733.336 256.593C739.681 256.593 740.871 253.963 745.234 246.973L751.58 249.282C747.614 265.186 739.285 278.141 725.007 278.141C702.4 278.141 700.02 257.234 700.417 248.961C687.725 261.916 671.067 278.141 651.633 278.141C632.596 278.141 622.681 253.258 622.681 238.379C622.681 232.736 628.63 222.154 656.393 211.508L699.624 194.641V178.736Z" fill="#141A21"/>
<path d="M809.882 238.38C809.882 251.655 809.882 264.225 835.265 264.225C837.248 264.225 837.248 265.892 837.248 268.842C837.248 271.856 837.248 273.524 834.868 273.524C822.97 273.524 811.468 271.856 799.966 271.856C787.275 271.856 774.187 273.524 761.495 273.524C760.305 273.524 760.305 272.818 760.305 270.83V267.88C760.305 264.545 760.702 264.225 767.444 263.904C782.119 262.878 784.895 257.94 784.895 240.047V166.487C784.895 160.138 781.722 156.162 774.583 154.174C773.393 153.853 764.668 151.545 764.668 146.927C764.668 144.939 765.858 143.913 769.427 142.245L794.017 131.022C801.156 127.687 807.105 125.058 807.899 125.058C809.882 125.058 810.675 127.046 810.675 128.008L809.882 162.126L810.675 162.832C820.987 149.236 836.455 125.058 856.682 125.058C868.58 125.058 875.719 130.702 875.719 142.951C875.719 149.877 868.977 155.841 861.838 155.841C853.112 155.841 849.543 149.877 839.628 149.877C831.695 149.877 821.383 161.164 815.038 169.437L809.882 175.722V238.38Z" fill="#141A21"/>
<path d="M929.262 240.367C929.262 257.619 946.316 263.198 962.181 263.198C995.893 263.198 1013.74 239.726 1013.74 205.864C1013.74 176.748 996.289 146.542 964.56 146.542C951.076 146.542 940.764 149.236 929.262 157.188V240.367ZM904.275 174.76C904.275 160.138 903.482 157.188 896.343 154.174L884.445 148.915C884.048 148.915 884.048 148.209 884.048 146.542C884.048 143.913 884.445 143.913 886.428 142.63L926.882 123.07C928.865 123.711 928.865 126.02 928.865 127.687C928.865 133.972 928.469 140.642 929.262 146.927C940.367 141.283 967.733 125.058 979.235 125.058C1015.33 125.058 1041.11 161.164 1041.11 194.641C1041.11 258.26 976.459 278.141 951.076 278.141C943.54 278.141 936.798 275.832 929.262 275.127V326.497C929.262 349.071 934.814 350.354 959.008 351.701C960.198 351.701 960.991 352.727 960.991 353.689V357.024C960.991 359.012 960.594 361 959.404 361C945.126 361 931.245 359.333 916.174 359.333C901.499 359.333 888.411 361 879.685 361C876.513 361 876.513 359.653 876.513 356.318V354.33C876.513 353.368 876.513 351.701 877.306 351.701C902.689 349.392 904.275 349.071 904.275 322.2V174.76Z" fill="#141A21"/>
<path d="M1141.85 175.722C1141.85 175.722 1151.36 169.437 1151.36 163.793C1151.36 147.568 1139.07 135.96 1122.81 135.96C1102.58 135.96 1089.1 158.855 1085.92 177.39L1141.85 175.722ZM1084.34 185.021C1083.54 189.639 1083.54 194.32 1083.54 198.938C1083.54 227.797 1105.75 256.593 1135.9 256.593C1148.19 256.593 1156.92 251.975 1173.57 237.032L1179.52 241.329C1166.04 262.878 1146.21 278.141 1119.64 278.141C1085.92 278.141 1058.16 245.69 1058.16 208.878C1058.16 169.758 1084.73 125.058 1128.36 125.058C1157.71 125.058 1178.73 147.247 1178.73 174.76V185.021H1084.34Z" fill="#141A21"/>
<path d="M1241.79 238.38C1241.79 251.655 1241.79 264.225 1267.18 264.225C1269.16 264.225 1269.16 265.892 1269.16 268.842C1269.16 271.856 1269.16 273.524 1266.78 273.524C1254.88 273.524 1243.38 271.856 1231.88 271.856C1219.19 271.856 1206.1 273.524 1193.41 273.524C1192.22 273.524 1192.22 272.818 1192.22 270.83V267.88C1192.22 264.545 1192.61 264.225 1199.35 263.904C1214.03 262.878 1216.81 257.94 1216.81 240.047V166.487C1216.81 160.138 1213.63 156.162 1206.49 154.174C1205.3 153.853 1196.58 151.545 1196.58 146.927C1196.58 144.939 1197.77 143.913 1201.34 142.245L1225.93 131.022C1233.07 127.687 1239.02 125.058 1239.81 125.058C1241.79 125.058 1242.59 127.046 1242.59 128.008L1241.79 162.126L1242.59 162.832C1252.9 149.236 1268.37 125.058 1288.59 125.058C1300.49 125.058 1307.63 130.702 1307.63 142.951C1307.63 149.877 1300.89 155.841 1293.75 155.841C1285.02 155.841 1281.45 149.877 1271.54 149.877C1263.61 149.877 1253.29 161.164 1246.95 169.437L1241.79 175.722V238.38Z" fill="#141A21"/>
<path d="M1543.22 260.248C1521.01 271.151 1494.43 278.141 1464.29 278.141C1399.25 278.141 1327.06 232.094 1327.06 155.841C1327.06 83.3076 1394.49 34.8878 1462.31 34.8878C1484.52 34.8878 1522.99 42.5196 1542.03 54.1275L1546.39 92.5426C1546.79 95.2362 1547.18 98.8276 1547.18 100.495C1547.18 102.868 1540.84 102.868 1540.84 102.868C1540.84 102.868 1536.47 97.545 1531.72 86.5784C1522.2 63.7473 1492.85 47.8425 1463.89 47.8425C1400.44 47.8425 1364.35 99.8537 1364.35 159.497C1364.35 213.817 1407.97 265.186 1463.89 265.186C1483.33 265.186 1508.71 258.26 1521.8 247.678C1532.11 239.341 1536.47 224.463 1540.44 212.213L1544.41 211.508C1544.41 211.508 1551.94 211.893 1551.15 216.51L1543.22 260.248Z" fill="#141A21"/>
<path d="M1640.39 135.96C1607.07 135.96 1597.16 167.449 1597.16 199.259C1597.16 228.439 1612.62 267.175 1646.73 267.175C1679.26 267.175 1692.34 238.379 1692.34 209.905C1692.34 176.748 1680.84 135.96 1640.39 135.96ZM1647.92 125.058C1687.58 125.058 1722.09 159.497 1722.09 199.259C1722.09 246.973 1682.43 278.141 1639.2 278.141C1599.14 278.141 1567.01 244.343 1567.01 203.876C1567.01 159.497 1603.9 125.058 1647.92 125.058Z" fill="#141A21"/>
<path d="M1776.03 248.32C1776.03 255.631 1776.03 264.225 1799.03 264.225C1799.83 264.225 1799.83 266.213 1799.83 268.842C1799.83 271.856 1799.43 273.524 1798.64 273.524C1785.94 273.524 1771.27 271.856 1764.13 271.856C1752.23 271.856 1740.33 273.524 1728.43 273.524C1726.06 273.524 1725.66 272.498 1725.66 271.151V268.201C1725.66 264.225 1726.45 264.225 1731.21 264.225C1745.49 264.225 1751.04 262.237 1751.04 246.653V67.7238C1751.04 46.8167 1751.04 45.5341 1737.95 40.2111C1733.19 38.223 1728.43 36.5555 1728.43 33.9261C1728.43 31.2326 1731.61 30.2706 1745.49 24.9476L1769.68 16.0333C1770.08 15.6485 1773.65 14.3658 1774.44 14.3658C1776.82 14.3658 1776.82 17.7007 1776.82 19.6246C1776.82 35.5936 1776.03 51.819 1776.03 67.7238V248.32Z" fill="#141A21"/>
<path d="M1863.28 248.32C1863.28 255.631 1863.28 264.225 1885.89 264.225C1886.68 264.225 1886.68 266.213 1886.68 268.842C1886.68 271.856 1886.29 273.524 1885.49 273.524C1872.8 273.524 1858.13 271.856 1851.38 271.856C1839.09 271.856 1827.19 273.524 1815.29 273.524C1812.91 273.524 1812.52 272.498 1812.52 271.151V268.201C1812.52 264.225 1813.31 264.225 1818.07 264.225C1832.74 264.225 1837.9 262.237 1837.9 246.653V67.7238C1837.9 46.8167 1837.9 45.5341 1824.81 40.2111C1820.05 38.223 1815.29 36.5555 1815.29 33.9261C1815.29 31.2326 1818.86 30.2706 1832.35 24.9476L1856.54 16.0333C1857.33 15.6485 1860.51 14.3658 1861.3 14.3658C1863.68 14.3658 1863.68 17.7007 1863.68 19.6246C1863.68 35.5936 1863.28 51.819 1863.28 67.7238V248.32Z" fill="#141A21"/>
<path d="M1939.04 26.6151C1949.35 26.6151 1957.68 34.8881 1957.68 45.1493C1957.68 55.4746 1949.35 63.7476 1939.04 63.7476C1928.72 63.7476 1920.4 55.4746 1920.4 45.1493C1920.4 34.8881 1928.72 26.6151 1939.04 26.6151ZM1952.52 248.32C1952.52 255.631 1952.52 264.225 1975.52 264.225C1976.32 264.225 1976.32 266.213 1976.32 268.842C1976.32 271.856 1975.92 273.524 1975.13 273.524C1962.44 273.524 1947.76 271.856 1940.62 271.856C1928.72 271.856 1916.83 273.524 1904.93 273.524C1902.55 273.524 1901.75 272.498 1901.75 271.151V268.201C1901.75 264.225 1902.94 264.225 1907.7 264.225C1921.98 264.225 1927.53 262.237 1927.53 246.653V178.416C1927.53 157.509 1927.53 156.162 1914.45 150.903C1909.69 148.915 1904.93 147.248 1904.93 144.554C1904.93 141.925 1908.1 140.963 1921.98 135.64L1946.17 126.725C1946.57 126.341 1950.14 125.058 1950.93 125.058C1953.31 125.058 1953.31 128.329 1953.31 130.317C1953.31 146.222 1952.52 162.511 1952.52 178.416V248.32Z" fill="#141A21"/>
<path d="M2017.17 162.511C2017.17 156.162 2014 152.186 2010.82 151.545L1999.72 148.915C1998.92 148.53 1997.73 147.568 1997.73 145.26C1997.73 144.233 1998.13 141.925 1999.72 141.604C2016.38 137.307 2038.98 125.058 2040.97 125.058C2042.16 125.058 2042.16 127.687 2042.16 129.034V151.865C2057.62 139.616 2075.47 125.058 2096.49 125.058C2125.44 125.058 2137.74 141.283 2137.74 169.117V249.987C2137.74 264.225 2148.45 264.225 2159.55 264.225C2160.35 264.225 2160.74 264.866 2160.74 266.534V272.498C2160.74 273.139 2160.35 273.524 2159.16 273.524C2146.07 273.524 2137.34 271.856 2126.24 271.856C2114.34 271.856 2102.84 273.524 2090.94 273.524C2088.56 273.524 2088.56 267.56 2088.56 266.213C2088.56 265.187 2089.75 264.225 2091.73 264.225C2097.28 264.225 2112.36 264.225 2112.36 254.284V176.428C2112.36 155.841 2106.01 144.233 2083.01 144.233C2069.12 144.233 2051.67 152.571 2042.16 162.126V248.32C2042.16 255.631 2042.16 264.225 2065.16 264.225C2065.56 264.225 2065.56 266.213 2065.56 268.842C2065.56 271.856 2065.56 273.524 2064.76 273.524C2051.67 273.524 2037 271.856 2030.26 271.856C2018.36 271.856 2006.46 273.524 1994.56 273.524C1992.18 273.524 1991.39 272.498 1991.39 271.151V268.201C1991.39 264.225 1992.58 264.225 1996.94 264.225C2011.62 264.225 2017.17 262.237 2017.17 246.653V162.511Z" fill="#141A21"/>
<path d="M2266.24 166.102H2257.91C2253.95 151.544 2246.41 135.96 2228.56 135.96C2213.49 135.96 2201.59 143.271 2201.59 158.855C2201.59 171.746 2219.04 179.698 2236.1 189.318C2253.95 199.259 2271 210.866 2271 231.389C2271 260.248 2244.43 278.141 2217.85 278.141C2196.04 278.141 2175.42 268.521 2175.02 263.198L2173.43 233.056L2182.95 232.094C2184.14 233.762 2184.54 236.07 2185.33 238.379C2188.9 251.975 2203.97 267.175 2218.25 267.175C2235.31 267.175 2246.01 256.913 2246.01 239.726C2246.01 228.759 2230.55 217.151 2222.22 212.855C2203.18 202.914 2178.59 191.627 2178.59 166.487C2178.59 138.974 2203.97 125.058 2228.96 125.058C2242.05 125.058 2255.53 128.713 2268.22 135.319L2266.24 166.102Z" fill="#141A21"/>
<path d="M40.4545 156.547C26.9697 170.014 13.0883 176.171 0.00012207 171.041V270.958H234.001V165.589C214.567 189.254 190.374 179.057 192.754 159.304C156.265 201.888 135.245 177.903 141.194 160.459C107.879 200.477 87.2547 176.941 96.7734 156.931C54.7326 207.083 28.1596 188.549 40.4545 156.547Z" fill="#141A21"/>
<path d="M125.329 22.8312C128.502 13.4679 124.536 3.33508 120.174 0.192596C135.245 3.46335 148.333 23.0237 148.333 45.534C148.333 74.3935 117.794 98.0583 118.984 123.39C126.123 88.6309 179.665 67.9803 168.56 30.3989C183.631 40.4676 190.77 67.852 193.15 88.8874C199.496 67.339 229.242 53.743 234.001 36.9403V145.901H0.00012207V90.1059C0.396734 56.7571 57.5089 57.5268 53.1461 26.4227C70.2004 54.0636 43.6274 77.7925 48.7834 95.3647C62.2682 42.3916 113.828 56.6289 125.329 22.8312Z" fill="#141A21"/>
</g>
</g>
<defs>
<clipPath id="clip0_144_1332">
<rect width="2271" height="361" fill="white"/>
</clipPath>
</defs>
</svg>
