<svg width="2150" height="470" viewBox="0 0 2150 470" fill="none" xmlns="http://www.w3.org/2000/svg">
<path d="M279.167 179.29C275.664 168.027 265.433 142.711 262.646 124.02C256.496 82.6217 277.953 55.3579 297.659 49.1142C319.773 42.8905 328.412 54.0931 336.971 80.1322C348.038 119.783 349.272 171.741 345.55 246.124C340.713 347.731 290.314 470.438 165.033 467.888C56.891 465.499 9.04001 394.85 4.06383 287.06C1.71507 236.247 5.31783 185.453 26.178 113.62C37.245 75.1532 47.1178 61.4612 81.4535 54.0931C108.444 49.1142 106.016 77.5826 99.9052 111.151C86.4495 185.453 80.1995 221.33 85.1756 305.631C89.9926 394.85 130.618 429.562 174.847 429.562C241.189 430.847 270.648 375.095 282.989 294.468C292.722 230.063 285.378 199.085 279.167 179.29ZM1693.68 267.285C1719.51 267.285 1726.92 298.102 1720.75 316.773C1714.58 335.324 1692.5 356.484 1658.13 362.648C1650.72 344.017 1647.02 267.285 1693.68 267.285ZM1213.46 309.285C1213.46 288.305 1202.33 270.939 1188.93 270.939C1177.75 270.939 1152.05 283.286 1152.05 322.957C1152.05 354.035 1163 368.771 1168.01 375.095C1203.54 363.892 1213.46 334.079 1213.46 309.285ZM831.325 56.5626C829.593 36.6869 814.147 23.1554 793.247 23.1554C769.939 23.1554 747.984 47.8293 750.312 78.8273C751.805 99.2651 763.748 116.069 787.216 116.069C814.147 116.089 833.793 85.1112 831.325 56.5626ZM1031.11 129.34C1028.98 94.6877 1020.66 79.0481 1002.21 80.333C977.744 81.8186 966.438 159.454 971.434 241.065C974.619 294.308 982.481 302.519 989.806 301.997C1003.34 301.174 1035.81 206.052 1031.11 129.34ZM1846.03 259.776C1830.8 323.479 1784.64 417.195 1715.77 417.195C1699.83 417.195 1671.56 410.952 1671.56 394.85C1671.56 377.484 1779.75 375.095 1779.75 292.019C1779.75 261.081 1751.5 217.656 1709.7 217.656C1654.43 217.656 1600.5 278.427 1600.5 362.668C1600.5 438.195 1647.02 462.99 1693.7 462.99C1774.81 462.99 1823.95 396.035 1849.73 340.323C1862.07 377.504 1869.32 462.99 1900.15 462.99C1912.39 462.99 1921.05 456.786 1935.8 423.379C1972.56 340.303 2008.23 244.9 2057.4 244.9C2075.77 244.9 2064.76 278.427 2108.97 278.427C2129.81 278.427 2144.5 261.081 2144.5 241.165C2144.5 212.637 2118.74 190.412 2079.47 190.412C1963.96 190.412 1939.48 365.137 1921.03 365.137C1890.3 365.137 1900.13 225.104 1877.98 225.104C1858.31 225.084 1848.66 248.714 1846.03 259.776ZM863.292 408.442C881.704 408.442 913.372 402.419 938.293 362.166C924.041 330.244 913.87 265.739 912.456 242.25C905.132 122.132 951.012 9.14194 1001.23 6.01001C1038.06 3.76145 1067.51 38.9154 1070.9 95.8722C1079.95 245.542 1030.53 308.02 1005.79 361.925C1009.97 382.825 1045.12 418.4 1078.28 418.4C1090.52 418.4 1105.33 412.196 1109.06 407.177C1106.59 398.564 1104.08 387.422 1104.08 371.26C1104.08 284.53 1159.37 211.392 1207.31 211.392C1245.38 211.392 1267.5 262.185 1267.5 295.713C1267.5 335.304 1234.3 367.587 1185.19 398.564C1193.83 407.177 1209.71 413.441 1223.29 413.441C1293.37 413.441 1330.04 327.916 1357.19 249.818C1362.08 234.922 1370.74 213.902 1387.9 213.902C1417.38 213.902 1429.72 409.687 1478.73 409.687C1499.69 409.687 1516.84 366.282 1516.84 332.915C1516.84 308.1 1508.25 305.611 1508.25 269.674C1508.25 230.063 1529.15 196.636 1557.47 196.636C1574.65 196.636 1580.86 213.902 1580.86 234.922C1580.86 314.243 1524.27 461.725 1440.85 461.725C1378.09 461.725 1382.98 352.67 1360.89 352.67C1336.21 352.67 1301.81 462.949 1180.31 462.949C1160.57 462.949 1139.73 453.052 1122.57 433.176C1093.13 453.052 1068.49 461.725 1040.23 461.725C994.822 461.725 975.117 414.626 956.745 414.626C934.591 414.626 910.088 462.949 836.301 462.949C777.343 462.949 767.51 383.728 746.67 383.728C728.198 383.728 699.953 462.949 669.26 462.949C617.588 462.949 606.64 325.446 561.098 325.446C525.488 325.446 412.927 465.098 382.373 461.905C370.092 460.621 364.917 451.365 366.211 438.958C367.942 421.813 382.572 375.918 388.504 354.216C398.436 316.532 407.553 275.235 412.648 262.065C417.704 248.774 431.339 239.298 442.287 240.322C447.8 240.844 449.452 251.224 451.164 259.796C457.374 290.433 466.033 321.672 475.806 321.672C493.064 321.672 550.051 211.372 583.212 211.372C623.818 211.372 628.675 384.892 683.93 384.892C702.402 384.892 715.957 362.628 728.198 335.284C729.452 289.369 741.734 223.84 778.577 223.84C804.394 223.84 816.695 282.021 798.203 332.895C798.163 393.565 837.436 408.442 863.292 408.442Z" fill="#141A21"/>
</svg>
