<svg width="810" height="225" viewBox="0 0 810 225" fill="none" xmlns="http://www.w3.org/2000/svg">
<g clip-path="url(#clip0_144_1424)">
<path d="M129.763 29.9685V0L69.2134 34.979V64.9711L129.763 29.9685Z" fill="#141A21"/>
<path d="M138.427 29.9685L198.977 64.9711V34.979L138.427 0V29.9685Z" fill="#141A21"/>
<path d="M198.977 195.032L138.427 160.029V190.021L198.977 225V195.032Z" fill="#141A21"/>
<path d="M207.64 195.032V225L268.19 190.021V160.029L207.64 195.032Z" fill="#141A21"/>
<path d="M207.64 109.995L268.19 144.997V115.005L207.64 80.0264V109.995Z" fill="#141A21"/>
<path d="M138.427 144.997L198.977 109.995V80.0264L138.427 115.005V144.997Z" fill="#141A21"/>
<path d="M69.2134 195.032V225L129.763 190.021V160.029L69.2134 195.032Z" fill="#141A21"/>
<path d="M60.5263 109.995V80.0264L0 115.005V144.997L60.5263 109.995Z" fill="#141A21"/>
<path d="M60.5263 195.032L0 160.029V190.021L60.5263 225V195.032Z" fill="#141A21"/>
<path d="M69.2134 109.995L129.763 144.997V115.005L69.2134 80.0264V109.995Z" fill="#141A21"/>
<path d="M354.447 74.2833L348.451 59.6299L342.455 74.2833H354.447ZM344.013 47.6709H353.173L372.53 93.1909H362.143L358.012 83.0517H338.914L334.783 93.1909H324.656L344.013 47.6709Z" fill="#141A21"/>
<path d="M393.634 48.002H402.793L423.944 75.8197V48.002H433.741V93.191H425.313L403.43 64.4515V93.191H393.634V48.002Z" fill="#141A21"/>
<path d="M456.757 70.7143V70.5962C456.757 57.739 466.435 47.2217 480.292 47.2217C488.814 47.2217 493.913 50.0578 498.091 54.1938L491.765 61.4969C488.295 58.3299 484.73 56.3918 480.221 56.3918C472.62 56.3918 467.12 62.7259 467.12 70.478V70.5962C467.12 78.3483 472.479 84.8005 480.221 84.8005C485.391 84.8005 488.531 82.7443 492.095 79.5063L498.422 85.8876C493.771 90.8509 488.625 93.9706 479.915 93.9706C466.624 93.9706 456.757 83.7133 456.757 70.7143Z" fill="#141A21"/>
<path d="M520.942 48.002H530.88V93.191H520.942V48.002Z" fill="#141A21"/>
<path d="M556.328 48.002H590.391V56.8412H566.195V66.0114H587.488V74.8507H566.195V84.3517H590.722V93.191H556.328V48.002Z" fill="#141A21"/>
<path d="M613.714 48.002H622.874L644.025 75.8197V48.002H653.821V93.191H645.37L623.511 64.4515V93.191H613.714V48.002Z" fill="#141A21"/>
<path d="M689.325 57.1721H675.586V48.002H713.002V57.1721H699.263V93.191H689.325V57.1721Z" fill="#141A21"/>
<path d="M328.528 118.408H337.687L358.838 146.226V118.408H368.635V163.597H360.207L338.324 134.858V163.597H328.528V118.408Z" fill="#141A21"/>
<path d="M392.925 144.241V118.408H402.864V143.981C402.864 151.331 406.546 155.16 412.613 155.16C418.68 155.16 422.362 151.473 422.362 144.312V118.408H432.3V143.91C432.3 157.594 424.628 164.306 412.495 164.306C400.338 164.306 392.925 157.523 392.925 144.241Z" fill="#141A21"/>
<path d="M467.072 127.578H453.333V118.408H490.726V127.578H476.987V163.597H467.072V127.578Z" fill="#141A21"/>
<path d="M532.485 140.365C537.325 140.365 540.087 137.788 540.087 133.983V133.842C540.087 129.587 537.112 127.389 532.273 127.389H522.406V140.365H532.485ZM512.515 118.408H533.146C538.883 118.408 543.344 120.015 546.295 122.993C548.821 125.522 550.166 129.067 550.166 133.322V133.463C550.166 140.766 546.224 145.351 540.488 147.479L551.512 163.621H539.898L530.219 149.157H522.406V163.621H512.467V118.408H512.515Z" fill="#141A21"/>
<path d="M573.749 118.408H583.664V163.597H573.749V118.408Z" fill="#141A21"/>
<path d="M619.64 127.578H605.901V118.408H643.317V127.578H629.578V163.597H619.64V127.578Z" fill="#141A21"/>
<path d="M665.53 118.408H675.468V163.597H665.53V118.408Z" fill="#141A21"/>
<path d="M736.514 141.122V141.003C736.514 133.251 730.848 126.799 722.846 126.799C714.843 126.799 709.296 133.133 709.296 140.885V141.003C709.296 148.755 714.961 155.208 722.964 155.208C730.99 155.208 736.514 148.874 736.514 141.122ZM698.933 141.122V141.003C698.933 128.146 709.06 117.629 722.987 117.629C736.915 117.629 746.924 128.028 746.924 140.862V140.98C746.924 153.837 736.797 164.354 722.869 164.354C708.918 164.378 698.933 153.979 698.933 141.122Z" fill="#141A21"/>
<path d="M769.893 118.408H779.052L800.203 146.226V118.408H810V163.597H801.573L779.713 134.858V163.597H769.893V118.408Z" fill="#141A21"/>
<path d="M138.427 104.984L194.633 72.4864L138.427 40.0127V104.984Z" fill="#141A21"/>
<path d="M129.764 104.984V40.0127L73.5571 72.4864L129.764 104.984Z" fill="#141A21"/>
<path d="M207.64 120.039V184.987L263.847 152.513L207.64 120.039Z" fill="#141A21"/>
<path d="M198.977 120.039L142.771 152.513L198.977 184.987V120.039Z" fill="#141A21"/>
<path d="M69.2134 184.987L125.42 152.513L69.2134 120.039V184.987Z" fill="#141A21"/>
<path d="M60.5265 184.987V120.039L4.34375 152.513L60.5265 184.987Z" fill="#141A21"/>
</g>
<defs>
<clipPath id="clip0_144_1424">
<rect width="810" height="225" fill="white"/>
</clipPath>
</defs>
</svg>
