<svg width="1010" height="450" viewBox="0 0 1010 450" fill="none" xmlns="http://www.w3.org/2000/svg">
<path d="M398.21 446.429C363.99 444.576 338.456 430.395 323.522 404.951C313.503 387.871 310.454 365.408 315.037 342.455C320.117 317.021 337.363 294.103 363.83 277.619C379.039 268.14 392.057 262.256 418.565 252.873C425.229 250.515 430.981 248.343 431.352 248.04C431.884 247.616 431.959 246.111 431.693 241.227C430.931 227.334 433.233 205.689 437.129 190.068C443.683 163.781 456.295 142.575 473.034 129.712C485.049 120.47 500.8 113.521 516.481 110.542C525.141 108.9 539.643 108.905 547.792 110.557C582.709 117.637 602.306 144.742 594.589 175.281C592.964 181.72 587.829 192.275 583.481 198.113C572.344 213.072 555.59 226.374 531.931 239.03C528.957 240.626 519.219 245.444 510.298 249.747C501.377 254.045 493.8 257.848 493.449 258.201C492.952 258.701 493.077 260.161 494.04 265.069C498.478 287.765 505.94 306.941 518.682 328.384C523.747 336.919 530.752 347.682 531.55 348.182C532.703 348.899 537.417 341.227 540.491 333.637C544.292 324.243 546.468 311.82 545.395 305.648C544.623 301.229 542.226 296.563 539.167 293.548C537.763 292.154 536.6 290.836 536.595 290.619C536.59 290.407 548.464 290.285 562.992 290.361L589.404 290.497L589.253 293.871C589.048 298.482 587.348 308.315 585.558 315.314C580.508 334.995 570.99 351.828 554.537 370.211C552.596 372.377 551.007 374.503 551.007 374.938C551.007 375.372 553.735 378.387 557.064 381.639C577.86 401.941 614.698 425.354 644.69 437.329C647.604 438.495 649.981 439.682 649.971 439.965C649.961 440.308 632.645 440.531 599.368 440.621L548.78 440.753L545.902 439.121C540.025 435.793 527.012 425.203 514.51 413.567C511.862 411.103 509.355 409.088 508.939 409.088C508.523 409.088 505.579 410.81 502.41 412.916C486.167 423.703 466.756 433.394 450.338 438.909C431.663 445.187 416.248 447.404 398.21 446.429ZM440.805 402.29C448.377 400.931 457.679 398.164 466.234 394.725C474.834 391.27 485.495 385.988 485.876 384.988C486.027 384.594 484.056 381.276 481.504 377.609C469.734 360.721 457.163 336.97 448.713 315.668C445.599 307.815 439.782 290.422 438.669 285.654C438.317 284.134 437.681 282.755 437.254 282.589C436.076 282.134 426.413 287.321 418.063 292.896C388.387 312.708 374.16 336.894 377.319 362.166C378.723 373.397 382.254 381.584 388.677 388.498C400.552 401.275 419.116 406.189 440.805 402.29ZM491.177 226.561C502.159 220.087 519.58 204.365 529.323 192.144C541.795 176.503 548.424 161.908 548.429 150.07C548.429 143.303 547.476 140.273 544.367 137.141C541.273 134.03 537.783 132.743 532.452 132.738C516.636 132.738 499.531 151.646 492.079 177.372C488.319 190.341 487.406 197.32 487.381 213.163C487.361 225.263 487.556 227.955 488.459 227.955C488.654 227.955 489.878 227.329 491.177 226.561ZM752.756 446.126C726.695 443.485 709.52 439.561 690.143 431.834C663.776 421.309 647.313 408.275 633.407 386.917C629.245 380.523 622.566 367.1 619.868 359.681C607.808 326.627 605.16 285.013 612.346 241.601C619.622 197.664 636.195 155.317 659.062 122.218C673.896 100.754 695.965 78.1493 718.747 61.0795C756.366 32.899 799.668 15.5766 847.773 9.48603C862.366 7.63763 870.54 7.16291 887.775 7.17301C913.846 7.18816 933.704 9.18806 959.926 14.4353C976.655 17.7886 1003.3 25.0307 1003.81 26.369C1004.07 27.0458 987.191 81.5431 986.494 82.2754C986.278 82.5026 983.685 80.7603 980.742 78.3867C957.028 59.3472 932.451 47.7569 907.598 43.9035C899.66 42.6713 884.741 42.6561 876.959 43.8732C842.117 49.3073 809.813 71.7254 781.134 110.375C771.817 122.93 761.552 139.757 753.568 155.555C742.752 176.968 735.315 195.896 727.793 221.208C703.833 301.739 702.619 358.004 724.182 388.462C733.063 401.012 746.046 409.007 762.519 412.062C771.977 413.82 794.934 412.754 797.221 410.456C797.587 410.093 808.795 374.776 822.124 331.975C844.028 261.671 846.394 253.742 846.645 249.757C846.976 244.404 845.988 239.621 843.596 235.015C841.425 230.829 835.688 225.147 830.959 222.506C828.918 221.365 827.243 220.253 827.238 220.041C827.233 219.829 863.981 219.652 908.907 219.652C953.828 219.652 990.586 219.829 990.581 220.041C990.581 220.253 988.59 221.349 986.158 222.465C973.44 228.324 964.224 237.101 958.743 248.585C957.554 251.07 947.274 283.23 931.834 332.753L906.846 412.901L899.625 416.385C870.214 430.602 834.234 440.839 798.344 445.207C791.75 446.015 758.272 446.687 752.756 446.126ZM0.915074 440.268C0.749591 440.005 1.83777 439.081 3.32712 438.217C12.203 433.071 22.1671 422.395 26.3895 413.496C27.613 410.921 139.655 51.5446 142.127 42.2571C142.564 40.631 142.93 37.1968 142.935 34.6313C142.97 26.7933 140.553 21.142 134.861 15.718C133.307 14.2383 132.038 12.8091 132.038 12.5414C132.038 11.8293 327.684 11.8899 336.656 12.6071C356.082 14.1575 375.529 19.3593 390.403 26.9751C415.797 39.9795 431.001 59.7159 435.675 85.7399C436.979 92.9819 437.229 109.092 436.161 116.89C431.808 148.676 417.507 182.392 398.035 206.784C366.493 246.298 314.907 271.564 251.597 278.513C231.528 280.715 206.24 281.271 188.332 279.897C183.157 279.498 178.814 279.281 178.684 279.412C178.047 280.059 137.654 410.582 137.193 413.496C135.769 422.481 140.362 432.581 148.28 437.874C149.845 438.919 150.988 439.995 150.828 440.258C150.427 440.909 1.31624 440.919 0.915074 440.268ZM222.994 246.404C237.701 243.778 250.679 238.293 263.201 229.42C269.284 225.112 281.78 212.542 286.935 205.547C299.833 188.058 309.321 167.423 316.973 140.242C321.847 122.92 323.923 109.724 323.918 96.1232C323.918 85.6389 322.976 79.3765 320.358 72.3516C316.472 61.9279 308.558 53.6909 298.504 49.6002C289.869 46.0852 282.497 45.161 264.766 45.3681L251.396 45.5196L220.321 145.171C203.236 199.982 189.345 245.091 189.461 245.414C189.581 245.737 191.727 246.282 194.224 246.626C196.732 246.969 199.124 247.333 199.55 247.439C201.496 247.919 218.816 247.151 222.994 246.404Z" fill="#141A21"/>
</svg>
