<svg width="1320" height="410" viewBox="0 0 1320 410" fill="none" xmlns="http://www.w3.org/2000/svg">
<mask id="mask0_331_120" style="mask-type:luminance" maskUnits="userSpaceOnUse" x="9" y="4" width="1308" height="406">
<path d="M1316.29 4.07715H9.11133V409.752H1316.29V4.07715Z" fill="white"/>
</mask>
<g mask="url(#mask0_331_120)">
<mask id="mask1_331_120" style="mask-type:luminance" maskUnits="userSpaceOnUse" x="-146" y="-160" width="1618" height="760">
<path d="M-145.879 599.145H1471.28V-159.17H-145.879V599.145Z" fill="white"/>
</mask>
<g mask="url(#mask1_331_120)">
<path d="M215.436 137.698C215.436 100.698 185.59 70.9017 149.095 70.9017H116.197V203.902H149.095C185.59 203.902 215.436 174.086 215.436 137.698ZM365.089 402.842H244.323L148.443 270.137H116.197V402.556H9.76562V4.73633H162.235C250.132 4.73633 321.877 64.3492 321.877 137.698C321.877 182.432 294.372 222.387 252.513 246.833L365.089 402.842Z" fill="#141A21"/>
<path d="M485.123 161.555C457.016 161.555 433.107 199.658 433.107 246.826C433.107 293.994 457.016 332.146 485.123 332.146C513.882 332.146 537.75 293.994 537.75 246.826C537.75 199.658 513.882 161.555 485.123 161.555ZM648.943 246.826C648.943 336.935 575.47 409.091 485.123 409.091C394.805 409.091 321.875 336.935 321.875 246.826C321.875 156.786 394.805 84.5898 485.123 84.5898C575.47 84.5898 648.943 156.786 648.943 246.826Z" fill="#141A21"/>
<path d="M898.703 91.1901L776.099 213.451V90.7861H669.688V402.537H776.099V276.079L904.097 402.537H1038.03L875.378 240.291L1010.1 105.97V290.977C1010.1 352.403 1047.14 409.089 1140.41 409.089C1184.69 409.089 1225.33 384.042 1245.07 361.379L1292.92 402.537H1315.63V91.1901H1209.22V253.396V292.77C1197.24 313.63 1180.54 326.745 1154.74 326.745C1128.56 326.745 1116.54 311.265 1116.54 261.752V248.686V91.1901H898.703Z" fill="#141A21"/>
</g>
</g>
</svg>
