<svg width="512" height="512" viewBox="0 0 512 512" fill="none" xmlns="http://www.w3.org/2000/svg">
<rect width="512" height="512" rx="80" fill="#2D1B69"/>
<path d="M257.979 256.836C262.194 260.013 265.743 263.989 268.422 268.537C271.101 273.085 272.858 278.117 273.593 283.344C274.327 288.571 274.026 293.892 272.704 299.003C271.382 304.113 269.066 308.913 265.89 313.129C262.713 317.345 258.737 320.893 254.188 323.572C249.64 326.251 244.609 328.009 239.382 328.743C234.155 329.478 228.834 329.176 223.724 327.854C218.613 326.533 213.812 324.218 209.597 321.041L161.208 385.255C173.856 394.786 188.258 401.733 203.591 405.698C218.924 409.664 234.889 410.57 250.572 408.366C266.255 406.162 281.351 400.891 295 392.853C308.643 384.814 320.573 374.167 330.104 361.519C339.636 348.87 346.582 334.468 350.548 319.135C354.513 303.802 355.42 287.838 353.216 272.154C351.012 256.471 345.739 241.375 337.701 227.729C329.663 214.082 319.016 202.153 306.367 192.622L257.979 256.836ZM299.529 98.2891C284.196 94.3236 268.231 93.4173 252.548 95.6212C236.865 97.8252 221.769 103.097 208.123 111.135C194.477 119.173 182.547 129.82 173.016 142.469C163.484 155.117 156.538 169.519 152.572 184.853C148.607 200.186 147.7 216.15 149.904 231.833C152.108 247.517 157.381 262.613 165.419 276.259C173.457 289.905 184.104 301.834 196.753 311.365L245.142 247.151C240.926 243.975 237.377 239.998 234.698 235.45C232.019 230.902 230.262 225.871 229.527 220.644C228.793 215.416 229.094 210.095 230.416 204.984C231.738 199.874 234.054 195.074 237.23 190.858C240.407 186.643 244.383 183.093 248.932 180.414C253.48 177.735 258.511 175.978 263.738 175.243C268.965 174.509 274.286 174.811 279.396 176.133C284.507 177.454 289.308 179.77 293.523 182.946L341.912 118.732C329.264 109.201 314.862 102.255 299.529 98.2891Z" fill="white"/>
</svg>
