<svg width="1001" height="412" viewBox="0 0 1001 412" fill="none" xmlns="http://www.w3.org/2000/svg">
<path d="M340.853 359.723C341.285 359.467 341.501 359.723 341.063 360.11C304.92 391.77 257.56 411.057 205.611 411.057C158.14 411.057 114.386 394.844 79.5273 367.86C79.2033 367.594 79.3629 367.27 79.7949 367.483C102.372 380.085 142.351 394.2 205.613 394.2C278.408 394.2 324.633 370.555 340.853 359.723ZM396.513 280.773C396.841 280.284 397.11 280.495 396.952 280.931C393.392 289.872 389.021 298.968 384.552 306.624C376.789 319.93 368.121 329.832 359.021 337.271C325.768 364.573 270.166 378.366 219.568 378.366C123.446 378.366 45.6355 348.586 19.9873 294.072C19.8223 293.648 20.0933 293.49 20.3643 293.859C47.8964 333.766 118.219 354.666 183.576 354.666C276.04 354.666 365.588 326.281 396.513 280.773ZM410.526 194.327C410.636 193.792 410.954 193.837 410.954 194.386C411.117 197.769 411.225 201.215 411.225 205.529C411.225 223.357 408.632 244.58 403.627 256.324C396.628 272.745 362.352 322.679 212.45 322.679C102.427 322.679 38.8962 285.461 13.4141 258.9C7.81206 253.027 3.99141 245.659 3.06641 240.964C1.12743 231.319 2.13809e-05 216.788 0 205.528C0 205.093 0.318615 204.987 0.429688 205.471C9.43069 238.918 59.0512 287.93 164.285 287.93C274.96 287.93 403.035 234.508 410.526 194.327ZM801.497 119.845C829.041 119.845 845.899 136.083 845.899 160.118C845.899 180.665 831.103 192.161 815.477 200.797L838.501 225.667L851.448 203.057C853.091 200.39 854.943 199.358 858.227 199.358H878.16C881.454 199.358 883.304 201.625 881.255 205.116L858.229 244.56L892.978 282.166C895.646 285.045 894.005 287.92 890.707 287.92H864.604C861.111 287.92 859.26 287.094 857 284.42L841.379 267.168C830.898 281.141 816.292 291.617 792.043 291.617C762.035 291.617 738.391 273.537 738.391 242.517C738.391 218.675 751.141 205.933 770.465 195.251C761.002 184.362 756.694 172.855 756.694 162.792C756.694 137.307 774.575 119.845 801.497 119.845ZM571.127 123.547C574.213 123.547 576.269 124.773 577.296 127.658L633 282.564C634.033 285.242 632.386 287.92 629.508 287.92H608.135C605.05 287.92 603.197 286.486 602.166 283.596L590.044 248.678H523.658L511.516 283.596C510.496 286.487 508.638 287.92 505.562 287.92H485.424C482.748 287.92 480.895 285.241 481.924 282.564L537.626 127.658C538.657 124.772 540.506 123.547 543.583 123.547H571.127ZM737.386 123.54C740.057 123.54 741.905 125.392 741.905 128.068V146.35C741.905 149.02 740.058 150.868 737.386 150.868H692.377V283.396C692.377 286.064 690.518 287.92 687.847 287.92H667.08C664.411 287.92 662.556 286.064 662.556 283.395V150.868H617.547C614.872 150.868 613.025 149.017 613.025 146.349V128.068C613.026 125.394 614.871 123.54 617.547 123.54H737.386ZM995.75 123.54C998.424 123.54 1000.27 125.394 1000.27 128.068V146.349C1000.27 149.018 998.424 150.868 995.75 150.868H950.732V283.395C950.732 286.065 948.88 287.92 946.213 287.92H925.452C922.776 287.92 920.934 286.064 920.934 283.396V150.868H875.912C873.235 150.868 871.39 149.021 871.39 146.35V128.068C871.39 125.392 873.236 123.54 875.912 123.54H995.75ZM788.56 212.715C775.81 219.912 767.583 227.094 767.583 241.48C767.585 255.66 779.09 265.724 792.664 265.725C805.813 265.725 814.657 259.366 821.853 248.471L788.56 212.715ZM389.836 114.984C389.779 114.608 390.058 114.561 390.216 114.879C395.003 124.633 400.659 138.524 403.679 150.436C406.382 161.096 406.269 169.007 404.165 176.5C392.739 217.203 322.211 239.508 231.421 239.508C82.603 239.508 18.8044 196.69 6.19141 169.929C4.62144 166.588 4.2501 164.438 5.12109 159.961C7.1081 149.512 13.7923 129.323 19.8223 117.356C19.9862 117.028 20.306 117.09 20.2041 117.464C19.1881 121.558 18.3741 125.492 18.374 129.425C18.374 170.359 86.2551 202.777 167.62 202.777C242.737 202.777 391.613 168.37 389.836 114.984ZM533.106 221.754H580.584L556.951 153.954L533.106 221.754ZM801.912 145.318C791.227 145.318 785.062 152.106 785.062 161.145C785.062 168.13 788.754 174.295 797.185 183.338C811.777 174.908 817.946 169.773 817.946 160.735C817.946 152.305 812.604 145.318 801.912 145.318ZM72.6377 48.79C73.0047 48.473 73.275 48.6375 72.957 49.0635C67.1342 56.2273 64.4903 63.281 64.4902 70.1748C64.4902 89.4608 79.795 119.787 161.543 119.787C272.8 119.787 342.691 79.3887 342.691 56.5527C342.691 54.6079 342.26 53.1625 341.396 51.8086C341.174 51.4866 341.396 51.2722 341.716 51.5361C348.341 57.5771 354.6 63.714 361.217 71.251C371.411 82.8369 375.396 88.8129 375.396 99.0498C375.396 127.694 330.836 160.288 230.992 160.288C137.287 160.288 37.0713 131.31 37.0713 91.3428C37.0714 88.5987 39.6103 84.0185 43.7002 78.8486C52.2601 67.9168 62.0179 57.7899 72.6377 48.79ZM205.613 0C244.19 5.26524e-05 279.973 10.5076 310.787 28.9775C319.083 33.9315 323.183 37.2143 323.183 41.9053C323.182 61.5582 268.011 81.9746 196.878 81.9746C124.999 81.9746 84.4844 63.335 84.4844 45.999C84.4844 40.118 89.7054 35.543 98.9814 29.834C129.906 10.8751 166.767 0 205.613 0Z" fill="#141A21"/>
</svg>
