<svg width="2240" height="210" viewBox="0 0 2240 210" fill="none" xmlns="http://www.w3.org/2000/svg">
<path fill-rule="evenodd" clip-rule="evenodd" d="M882.055 11.8804V199.394H1038.41V176.436H913.324V106.27H1027.6V85.8709H913.324V34.8384H1038.41V11.8804H882.055ZM1655.45 11.8804V199.394H1811.82V176.436H1686.72V106.27H1801.01V85.8709H1686.72V34.8384H1811.82V11.8804H1655.45ZM1449.77 11.8804V199.394H1586.9V176.436H1481.04V11.8804H1449.77ZM1938.13 199.394V11.8804H1906.84V199.394H1938.13ZM589.765 5.49805V199.394H621.035V68.0027L783.423 208.335V11.8804H752.154V147.109L589.765 5.49805ZM298.683 5.49805V199.394H329.964V68.0027L492.34 208.335V11.8804H461.071V147.109L298.683 5.49805ZM2043.96 5.49805V199.394H2075.26V68.0027L2237.62 208.335V11.8804H2206.35V147.109L2043.96 5.49805ZM1195.99 11.8804V199.394H1227.26V121.58L1252.52 101.18L1340.32 199.394H1376.41L1274.17 85.8709L1369.19 11.8804H1330.7L1227.26 89.6949V11.8804H1195.99ZM120.666 53.9722L161.571 125.417H79.7737L120.666 53.9722ZM173.594 145.83L203.669 199.408H232.539L120.666 6.14432L6.40625 199.408H37.6753L68.9444 145.83H173.594Z" fill="#141A21"/>
</svg>
