<svg width="2775" height="1213" viewBox="0 0 2775 1213" fill="none" xmlns="http://www.w3.org/2000/svg">
<path d="M178.341 785.779C206.024 785.779 247.887 792.645 292.019 824.795L295.837 785.817H309.167V915.22H296.399L295.763 913.423C282.822 876.73 265.763 848.209 243.717 826.105C224.201 808.928 202.438 800.157 179.165 800.157C139.922 800.157 111.393 827.307 111.393 864.709C111.393 912.943 154.865 933.926 195.564 949.742C264.829 978.211 326.99 1010.02 326.99 1086C326.99 1161.78 264.036 1212.71 170.291 1212.71C117.514 1212.71 75.4616 1190.87 48.4883 1171.29L44.6699 1212.71H31.377V1083.3H44.0703L44.707 1084.99C58.3567 1119.03 73.5927 1145.29 91.249 1165.23C109.212 1187.25 131.686 1198.36 158.084 1198.36C206.874 1198.36 239.673 1167.58 239.673 1121.68C239.673 1071.15 195.364 1051.76 144.006 1029.31C75.5085 1001.22 32.9502 970.136 32.9502 901.965C32.9504 832.49 91.4397 785.779 178.341 785.779ZM521.469 696.665V793.904H634.959V811.466H521.469V1107.86C521.469 1172.39 540.898 1185.41 572.242 1185.41C588.729 1185.41 606.37 1181.1 631.177 1171.03L634.959 1169.5V1183.31L633.424 1184.06C592.398 1204.13 558.342 1212.67 519.56 1212.67C459.057 1212.67 430.895 1180.94 430.895 1112.73V811.466H370.911V798.136L432.242 794.017L509.263 696.665H521.469ZM876.916 785.779C951.145 785.779 1030.39 822.475 1030.39 925.479C1030.39 936.484 1029.15 949.4 1026.31 967.229L1025.9 969.513H759.682C760.64 1075.76 817.918 1149.73 899.644 1149.73C953.379 1149.73 1003.64 1114.21 1021.22 1079.86L1021.93 1078.4H1035.19L1034.36 1081.73C1019.18 1144.8 961.653 1212.67 871.225 1212.67C810.281 1212.67 758.797 1190.42 722.276 1148.23C689.034 1109.91 670.717 1057.54 670.717 1000.89C670.717 859.677 774.467 785.779 876.916 785.779ZM1914.24 785.817C2001.16 785.818 2049.07 823.904 2049.07 893.091V1191.1H2113.92V1204.43L2111.34 1204.58L1969.39 1212.67H1958.53V1168.11H1953.93C1909.99 1197.65 1878.78 1212.67 1830.78 1212.67C1772 1212.67 1733.99 1177.6 1733.99 1123.25C1733.99 1066.3 1793.52 1037.56 1851.75 1016.95L1958.53 981.12V883.356C1958.53 829.927 1934.4 805.025 1882.64 805.025C1854.4 805.025 1815.24 819.179 1794.53 836.777V840.896C1829.81 841.164 1845.6 863.151 1845.6 884.929C1845.6 907.684 1830.52 930.684 1796.74 930.684C1784.41 930.667 1772.59 925.763 1763.88 917.045C1755.16 908.327 1750.25 896.508 1750.24 884.18C1750.24 832.706 1828.35 785.817 1914.24 785.817ZM2660.85 696.665V793.904H2774.34V811.466H2660.85V1107.86C2660.85 1172.39 2680.26 1185.41 2711.59 1185.41C2728.13 1185.41 2745.77 1181.1 2770.56 1171.03L2774.34 1169.5V1183.31L2772.81 1184.06C2731.84 1204.13 2697.75 1212.67 2658.91 1212.67C2598.4 1212.67 2570.28 1180.94 2570.28 1112.73V811.466H2510.33V798.136L2571.62 794.017L2648.68 696.665H2660.85ZM1259.7 793.904V807.271L1203.16 811.241L1310.02 1125.42H1314.14L1383.78 902.003L1353.04 811.315L1303.69 807.234V793.904H1524.75V807.31L1522.17 807.422L1456.72 811.278L1553.21 1125.46H1557.29L1649.1 826.779L1584.93 806.748V793.904H1741.14V806.822L1739.15 807.347L1666.81 827.229L1545.91 1208.66H1487.65L1487.01 1206.83L1391.61 927.764L1381.16 961.163L1302.76 1208.66H1244.53L1243.86 1206.83L1098.58 811.354L1049.98 807.234V793.904H1259.7ZM2308.29 785.779V893.615H2312.03C2349.55 819.06 2384.53 785.779 2425.56 785.779C2454.81 785.779 2477.7 806.939 2477.68 833.894C2477.68 869.743 2451.92 886.052 2427.96 886.052C2405.14 886.052 2379.53 869.296 2376.02 832.546H2371.49C2351.94 851.007 2332.92 882.462 2308.29 937.387V1187.17L2373.18 1191.21V1204.58H2152.15V1191.21L2217.79 1187.17V807.422H2160.24V794.092L2297.35 785.779H2308.29ZM1890.01 1019.65C1842.89 1036.86 1824.52 1059.81 1824.52 1101.39C1824.52 1141.09 1851.12 1166.76 1892.3 1166.76C1916.51 1166.76 1935.78 1162.33 1958.5 1151.56V995.011L1890.01 1019.65ZM872.872 799.334C808.554 799.334 768.073 856.385 761.479 955.958L934.578 952.026C938.393 930.804 941.429 911.763 941.468 894.701C941.468 824.421 906.018 799.334 872.872 799.334ZM937.087 178.304C1024.03 178.304 1071.92 216.391 1071.92 285.578V583.587H1136.77V596.992L992.278 605.229H981.345V560.71H976.814C932.817 590.271 901.553 605.229 853.626 605.229C794.868 605.229 756.874 570.127 756.874 515.778C756.874 458.803 816.392 430.086 874.595 409.478V409.439L981.382 373.569V275.843C981.382 222.414 957.246 197.55 905.485 197.55C877.247 197.55 838.085 211.702 817.419 229.301V233.42C852.693 233.727 868.491 255.693 868.491 277.49C868.491 300.246 853.389 323.171 819.591 323.171C807.262 323.155 795.443 318.25 786.726 309.532C778.008 300.815 773.102 288.996 773.086 276.667C773.086 225.193 851.24 178.304 937.087 178.304ZM1665.88 89.1895V186.392H1779.37V204.027H1665.88V500.389C1665.88 564.937 1685.36 577.896 1716.69 577.896C1733.16 577.895 1750.82 573.621 1775.62 563.518L1779.37 561.982V575.837L1777.83 576.585C1736.81 596.657 1702.79 605.229 1664.01 605.229C1603.5 605.229 1575.34 573.466 1575.34 505.257H1575.38V204.064H1515.39V190.66L1576.73 186.541L1653.75 89.1895H1665.88ZM2511.68 178.304C2598.6 178.304 2646.47 216.391 2646.47 285.578V583.587H2711.33V596.992L2566.83 605.229H2555.97V560.71H2551.37C2507.37 590.271 2476.15 605.229 2428.22 605.229C2369.42 605.229 2331.43 570.127 2331.43 515.778C2331.43 458.803 2390.93 430.086 2449.15 409.478V409.439L2555.94 373.569V275.843C2555.94 222.414 2531.8 197.55 2480.04 197.55C2451.82 197.55 2412.68 211.702 2391.97 229.301V233.42C2427.25 233.727 2443.05 255.693 2443.05 277.49C2443.05 300.246 2427.94 323.171 2394.15 323.171C2381.81 323.165 2369.99 318.263 2361.27 309.543C2352.55 300.823 2347.65 288.999 2347.64 276.667C2347.64 225.193 2425.83 178.304 2511.68 178.304ZM156.212 178.341V251.28H160.368C200.972 206.229 238.663 178.341 300.144 178.341C353.419 178.341 390.447 207.799 402.026 259.368H405.021C451.089 202.584 494.927 178.341 551.424 178.341C618.598 178.341 658.698 224.781 658.698 302.614V579.693L723.549 583.737V597.104H518.698V583.774L568.123 579.693V297.71C568.123 239.066 548.737 212.938 505.219 212.938C473.625 212.939 445.26 232.11 407.455 279.213V579.693L472.307 583.737V597.142H267.418V583.774L316.843 579.73V297.747C316.843 239.103 297.456 212.938 253.938 212.938C222.115 212.939 201.495 228.561 156.175 275.356V579.693L220.989 583.737H221.026V597.104H0V583.662L65.6377 579.618V199.946H8.08789V186.541L10.6709 186.429L145.167 178.341H156.212ZM1973.85 0V251.28H1978.12C2026 200.152 2070.31 178.341 2125.98 178.341C2193.15 178.341 2233.29 224.781 2233.29 302.614V579.693L2298.1 583.737V597.142H2093.25V583.774L2142.71 579.73V297.747C2142.71 240.675 2121.05 212.938 2076.52 212.938C2044.29 212.939 2020.18 227.545 1973.85 275.356V579.693L2038.66 583.737H2038.7V597.142H1817.67V583.737L1883.35 579.655V21.6797H1825.76V8.27539L1828.34 8.08789L1962.88 0H1973.85ZM1432.23 178.304C1461.53 178.304 1484.43 199.445 1484.43 226.418C1484.43 262.267 1458.63 278.613 1434.67 278.613C1411.83 278.613 1386.22 261.858 1382.7 225.107H1378.17C1358.59 243.569 1339.63 275.061 1315 329.985V579.693L1379.85 583.737V597.104H1158.82V583.662L1224.46 579.618V199.946H1166.91V186.541L1169.46 186.429L1303.99 178.341H1315V286.14H1318.74C1356.22 211.565 1391.27 178.304 1432.23 178.304ZM912.861 412.21C865.778 429.406 847.411 452.31 847.411 493.911C847.411 533.633 874.022 559.287 915.22 559.287C939.375 559.287 958.684 554.878 981.382 544.085V387.573L912.861 412.21ZM2487.45 412.21C2440.35 429.406 2421.97 452.31 2421.97 493.911C2421.97 533.633 2448.6 559.287 2489.77 559.287C2513.99 559.287 2533.26 554.878 2555.97 544.085V387.573L2487.45 412.21Z" fill="#141A21"/>
</svg>
