<svg width="354" height="56" viewBox="0 0 354 56" fill="none" xmlns="http://www.w3.org/2000/svg">
<path d="M74.5908 17.0146C77.8063 17.0147 80.5167 18.1166 82.6299 20.0918L79.46 23.0322C78.1278 21.8379 76.52 21.1943 74.7285 21.1943C72.8449 21.1944 71.4209 22.2516 71.4209 23.6758C71.421 25.3292 72.5697 26.0639 75.6016 26.8447C79.9197 27.9473 83.6864 29.4637 83.6865 34.2412C83.6865 38.4675 80.1033 41.3623 74.9121 41.3623C71.0533 41.3623 67.9754 39.9378 66 37.3652L69.2617 34.4248C70.5939 36.1246 72.7072 37.1357 74.9121 37.1357C77.3009 37.1357 79.0928 36.0787 79.0928 34.4248C79.0925 32.5876 77.2094 31.944 74.4531 31.1172C70.181 29.8768 66.8732 28.3612 66.873 23.6758C66.873 19.9546 70.0888 17.0146 74.5908 17.0146ZM113.793 17.0146C119.489 17.0148 123.118 20.4597 123.118 25.1455V40.8564H118.846V37.3652C117.376 39.7082 114.711 41.3623 110.761 41.3623C106.167 41.3623 102.722 38.6971 102.722 34.5166C102.722 30.2447 105.661 28.3148 109.658 27.7178L116.688 26.6611C117.973 26.4772 118.524 25.9723 118.524 25.0078C118.524 23.4918 117.101 21.3321 113.793 21.332C110.394 21.332 108.648 22.9407 107.453 24.6865L103.595 22.4346C105.202 19.7243 108.097 17.0146 113.793 17.0146ZM137.858 17.0146C142.222 17.0146 145.668 19.0353 147.827 22.3428L143.969 24.8701C142.636 22.7569 140.615 21.4248 137.858 21.4248C133.448 21.4248 130.232 24.962 130.232 29.1885C130.233 33.4606 133.448 36.9521 137.858 36.9521C140.615 36.9521 142.636 35.6659 143.969 33.5527L147.827 36.0332C145.668 39.3407 142.222 41.3623 137.858 41.3623C130.83 41.3623 125.547 35.9872 125.547 29.1885C125.547 22.3894 130.83 17.0147 137.858 17.0146ZM240.689 30.1074C240.69 34.9767 242.848 36.9979 246.155 36.998C249.463 36.998 251.623 34.9768 251.623 30.1074V17.5195H256.217V30.75C256.217 38.284 251.071 41.3623 246.155 41.3623C241.194 41.3622 236.094 38.2839 236.094 30.75V17.5195H240.689V30.1074ZM270.95 17.0146C278.117 17.0146 282.068 22.0677 282.068 28.3613C282.068 29.2342 281.929 30.6117 281.746 31.1172H263.509C264.336 34.6544 267.321 37.0438 270.995 37.0439C273.798 37.0439 275.177 36.4008 277.612 34.5635L280.368 37.6865C277.566 40.1672 274.625 41.3623 270.95 41.3623C263.969 41.3622 258.639 36.0331 258.639 29.1885C258.639 22.3895 263.968 17.0148 270.95 17.0146ZM319.732 17.0146C324.096 17.0148 327.541 19.0354 329.701 22.3428L325.842 24.8701C324.508 22.757 322.488 21.425 319.732 21.4248C315.321 21.4248 312.105 24.962 312.105 29.1885C312.106 33.4606 315.321 36.9521 319.732 36.9521C322.487 36.952 324.508 35.6657 325.842 33.5527L329.701 36.0332C327.541 39.3406 324.096 41.3622 319.732 41.3623C312.703 41.3623 307.42 35.9873 307.42 29.1885C307.42 22.3894 312.703 17.0146 319.732 17.0146ZM342.826 17.0146C349.99 17.0148 353.942 22.0678 353.942 28.3613C353.942 29.2341 353.805 30.6115 353.62 31.1172H335.382C336.209 34.6545 339.197 37.0439 342.871 37.0439C345.674 37.0439 347.05 36.4007 349.485 34.5635L352.243 37.6865C349.441 40.1672 346.501 41.3623 342.826 41.3623C335.842 41.3623 330.514 36.0332 330.514 29.1885C330.514 22.3894 335.842 17.0146 342.826 17.0146ZM93.2373 17.5176H99.9912V21.7441H93.2373V33.0449C93.2373 35.8931 94.6622 36.8125 96.5918 36.8125C98.1992 36.8125 99.0722 36.7201 100.45 36.3984V40.7627C99.0261 41.0844 97.7856 41.2686 96.2236 41.2686C91.6298 41.2685 88.5978 38.4662 88.5977 33.3672V21.7441H84.417V17.5176H86.5762C88.0462 17.5176 88.6434 16.8284 88.7812 15.4502L89.1494 10.8564H93.2373V17.5176ZM154.585 23.8945C158.863 23.3572 160.944 21.773 161.981 20.502C162.651 19.6813 162.988 18.8683 163.158 18.2764C163.243 17.981 163.287 17.7456 163.307 17.5996L163.321 17.4648V17.4756C163.324 17.4773 163.407 17.4805 165.651 17.5342C167.839 17.5865 167.975 17.5909 167.983 17.5928V17.6055C167.983 17.6114 167.982 17.6199 167.981 17.627C167.981 17.6408 167.98 17.6568 167.979 17.6748C167.978 17.712 167.976 17.7593 167.972 17.8135C167.963 17.9216 167.948 18.0629 167.925 18.2324C167.878 18.5719 167.794 19.0299 167.64 19.5664C167.331 20.6396 166.736 22.0487 165.595 23.4482C164.588 24.6816 163.224 25.8269 161.402 26.7363C161.992 27.0058 162.55 27.3041 163.074 27.6318C165.477 29.1337 167.079 31.1288 168.138 33.0742C169.19 35.0085 169.721 36.9185 169.991 38.3281C170.127 39.0376 170.2 39.635 170.239 40.0645C170.259 40.2793 170.27 40.4545 170.276 40.5811C170.28 40.6439 170.282 40.6966 170.283 40.7354C170.284 40.7543 170.285 40.7714 170.285 40.7842V40.8096C170.283 40.8109 170.212 40.8126 167.953 40.8486C165.769 40.8834 165.632 40.8875 165.623 40.8887L165.618 40.8193C165.615 40.7508 165.609 40.6387 165.596 40.4902C165.568 40.1912 165.515 39.746 165.411 39.207C165.202 38.1189 164.8 36.6976 164.041 35.3018C163.288 33.9168 162.198 32.581 160.604 31.585C159.178 30.6935 157.243 30.0108 154.585 29.8828V40.8545H149.945V7.50293H154.585V23.8945ZM183.729 40.8574H179.135V17.5205H183.729V40.8574ZM220.957 7C222.198 7 223.348 7.13742 224.542 7.45898V11.5938C223.393 11.3641 222.52 11.2266 221.324 11.2266C219.533 11.2267 218.34 12.2832 218.34 14.626V17.5195H225.001V21.7461H218.34V40.8574H213.746V21.7461H209.749V17.5195H211.77C213.056 17.5195 213.746 16.8303 213.746 15.498V14.4424C213.746 9.43515 216.641 7.00014 220.957 7ZM199.67 17.0146C204.585 17.0146 208.536 20.0462 208.536 27.4883V40.8564H203.942V28.3154C203.942 23.4919 201.691 21.4707 198.384 21.4707C194.847 21.471 192.366 24.6403 192.366 28.7744V40.8564H187.772V17.5195H192.045V21.5625C192.964 19.4034 195.398 17.0148 199.67 17.0146ZM296.094 17.0146C301.009 17.0148 304.959 20.0464 304.959 27.4883V40.8564H300.365V28.3154C300.365 23.4919 298.114 21.4707 294.807 21.4707C291.27 21.4709 288.789 24.6402 288.789 28.7744V40.8564H284.195V17.5195H288.467V21.5625C289.386 19.4034 291.82 17.0146 296.094 17.0146ZM232.465 40.8545H227.823V7.50293H232.465V40.8545ZM111.128 31.21C108.693 31.5774 107.361 32.4958 107.361 34.3789C107.361 36.4462 109.107 37.1816 111.45 37.1816C115.768 37.1815 118.524 34.8842 118.524 30.9336V30.1074L111.128 31.21ZM270.95 21.2402C267.321 21.2403 264.428 23.6299 263.554 27.0293H277.52C277.105 23.7218 274.992 21.2402 270.95 21.2402ZM342.826 21.2402C339.197 21.2402 336.302 23.6298 335.43 27.0293H349.394C348.981 23.7218 346.868 21.2403 342.826 21.2402ZM181.432 7.0459C183.086 7.0459 184.418 8.42435 184.418 10.0322C184.418 11.6859 183.085 13.0176 181.432 13.0176C179.732 13.0175 178.492 11.6858 178.492 10.0322C178.492 8.42441 179.732 7.046 181.432 7.0459Z" fill="#141A21"/>
<path d="M51 0C53.7614 0 56 2.23858 56 5V51C56 53.7614 53.7614 56 51 56H5C2.23858 56 0 53.7614 0 51V5C6.99501e-07 2.23858 2.23858 2.30092e-08 5 0H51ZM28.2168 28.0918C28.6776 28.4392 29.0655 28.8739 29.3584 29.3711C29.6514 29.8686 29.8435 30.4195 29.9238 30.9912C30.0041 31.5627 29.9716 32.1444 29.8271 32.7031C29.6826 33.2619 29.4293 33.7871 29.082 34.248C28.7346 34.7091 28.2992 35.0976 27.8018 35.3906C27.3044 35.6836 26.7542 35.8757 26.1826 35.9561C25.6109 36.0364 25.0287 36.0039 24.4697 35.8594C23.9109 35.7148 23.3858 35.4616 22.9248 35.1143L17.6318 42.1377C19.0152 43.1801 20.5906 43.9393 22.2676 44.373C23.9446 44.8068 25.6909 44.9061 27.4062 44.665C29.1216 44.424 30.7731 43.8469 32.2656 42.9678C33.758 42.0886 35.0631 40.9243 36.1055 39.541C37.1479 38.1576 37.9071 36.5823 38.3408 34.9053C38.7745 33.2282 38.8739 31.482 38.6328 29.7666C38.3917 28.0515 37.8155 26.4006 36.9365 24.9082C36.0574 23.4157 34.8922 22.1108 33.5088 21.0684L28.2168 28.0918ZM32.7607 10.75C31.0838 10.3163 29.3374 10.2179 27.6221 10.459C25.9069 10.7001 24.256 11.2763 22.7637 12.1553C21.2711 13.0345 19.9663 14.1996 18.9238 15.583C17.8815 16.9663 17.1212 18.5409 16.6875 20.2178C16.2538 21.8947 16.1545 23.6412 16.3955 25.3564C16.6366 27.0718 17.2136 28.7233 18.0928 30.2158C18.9719 31.7083 20.1362 33.0132 21.5195 34.0557L26.8125 27.0322C26.3514 26.6848 25.963 26.2494 25.6699 25.752C25.377 25.2546 25.1848 24.7044 25.1045 24.1328C25.0241 23.5611 25.0576 22.9789 25.2021 22.4199C25.3467 21.8611 25.5999 21.336 25.9473 20.875C26.2947 20.414 26.7292 20.0254 27.2266 19.7324C27.724 19.4394 28.2749 19.2473 28.8467 19.167C29.4182 19.0867 29.9999 19.1202 30.5586 19.2646C31.1176 19.4092 31.6434 19.6623 32.1045 20.0098L37.3965 12.9863C36.0131 11.9439 34.4378 11.1837 32.7607 10.75Z" fill="#141A21"/>
</svg>
