<svg width="601" height="137" viewBox="0 0 601 137" fill="none" xmlns="http://www.w3.org/2000/svg">
<path d="M209.1 44.9L206.9 33.5H191.4V104.2H210.7V71.8C210.7 56.6 219.3 51.8 229.1 51.8C230.9 51.8 232.7 51.9 234.8 52.4V33.2C233.3 33 231.8 32.9 230.3 32.9C224.3 33 213.1 35.5 209.1 44.9ZM347.9 0.100006H328.6V104.2H347.9V0.100006ZM54 86.9C37.5 86.9 20.8 75 20.8 53.3C20.8 30.1 38.4 19.2 53.7 19.2C65.6 19.2 73.6 24.8 79.2 33.5L93.6 20.8C84.9 8.2 71.1 0 53.6 0C26 0 0 20.7 0 53.2C0 85.7 25.1 106.2 53.8 106.2C71.3 106.2 85.2 97.4 93.9 85.7L80.4 74C75.4 81.5 65.4 86.9 54 86.9ZM279.8 31.3C258.5 31.3 241.8 47 241.8 68.8C241.8 90.5 258.5 106.3 279.8 106.3C301.1 106.3 317.9 90.5 317.9 68.8C317.9 47 301.2 31.3 279.8 31.3ZM279.8 89C270.4 89 261 82.2 261 68.9C261 55.6 270.3 48.8 279.8 48.8C289.3 48.8 298.6 55.5 298.6 68.9C298.6 82.3 289.3 89 279.8 89ZM397.5 31.3C376.2 31.3 359.5 47 359.5 68.8C359.5 90.5 376.2 106.3 397.5 106.3C418.8 106.3 435.5 90.5 435.5 68.8C435.6 47 418.7 31.3 397.5 31.3ZM397.5 89C388 89 378.7 82.2 378.7 68.9C378.7 55.6 388.1 48.8 397.5 48.8C406.9 48.8 416.3 55.5 416.3 68.9C416.3 82.3 406.8 89 397.5 89ZM153 74.6C153 82.8 148 88.6 139.6 88.6C130.7 88.6 126.6 82.3 126.6 74.4V33.5H107.2V78.2C107.2 93.5 117 106.1 134.3 106.1C141.8 106.1 150.1 103.2 154 96.6L155.4 104.2H172.2V33.4H152.8V74.6H153ZM502 24.4L492.4 33.9C488.2 32.1 483.8 31.2 479.3 31.2C461.6 31.2 448 43.1 448 60.5C448 69.6 453.1 78.1 459.2 82.4C455.7 84.7 452.6 87.7 450.6 91.5L450.2 92.4L465.1 99.7L465.5 98.8C467.9 93.8 473.4 90.4 479.3 90.4C488 90.4 494.6 96.8 494.6 105.9C494.6 114.1 487.6 120.7 479.3 120.7C474.6 120.7 468.1 118.4 465.4 112L465 111.1L449.7 118.6L450.1 119.5C455.2 130 466.3 136.5 479.1 136.5C497.6 136.5 511.7 124 511.7 106.6C511.7 96.2 506.3 88.1 499.2 82.4C505.8 77.2 510.6 69.6 510.6 60.6C510.6 53 508.3 48.2 504.3 43L512.5 34.9L502 24.4ZM479.3 74.8C471.5 74.8 465.4 68.8 465.4 60.8C465.4 52.4 471.5 46.8 479.3 46.8C487.3 46.8 493.2 52.6 493.2 60.8C493.4 68.9 487.5 74.8 479.3 74.8ZM579.6 33.5L561.2 73L543.1 33.5H521.5L550.9 93.4L549.5 96.2L529 135.8H549.4L600.2 33.5H579.6Z" fill="#141A21"/>
</svg>
