<svg width="1582" height="728" viewBox="0 0 1582 728" fill="none" xmlns="http://www.w3.org/2000/svg">
<path d="M377.059 11.1756L300.594 334.224H363.751L379.31 265.014H488.327L503.887 334.224H567.045L490.58 11.1756H377.059ZM392.106 207.15L429.673 42.1189H437.965L475.02 207.15H392.106ZM151.246 11.1756H264.971V334.843H208.978V41.6033H198.743L187.38 287.912C186.724 301.64 180.851 314.588 170.981 324.073C161.109 333.559 147.995 338.855 134.356 338.865C120.709 338.88 107.581 333.593 97.7047 324.102C87.8286 314.611 81.9641 301.649 81.3319 287.912L69.4578 41.7063H59.2214V334.843H3.12651V11.1756H117.671L130.261 291.419H138.553L151.246 11.1756ZM1349.92 341.238C1314.39 341.433 1279.74 330.184 1251 309.13C1222.27 288.079 1200.97 258.326 1190.2 224.212C1179.43 190.1 1179.77 153.413 1191.15 119.505C1202.54 85.5966 1224.38 56.242 1253.49 35.724C1273.88 21.1749 1297.25 11.4278 1321.88 7.20269C1346.51 2.97763 1371.76 4.38267 1395.78 11.314C1419.8 18.2453 1441.96 30.5258 1460.63 47.248C1479.31 63.9701 1494.01 84.7065 1503.67 107.925L1449.11 131.236C1441.68 113.491 1429.81 97.998 1414.64 86.2794C1399.47 74.5608 1381.54 67.02 1362.61 64.3981C1343.35 62.2085 1323.86 65.2865 1306.19 73.3088C1288.52 81.3311 1273.32 94.0014 1262.19 109.988C1251.03 126.516 1244.45 145.753 1243.16 165.705C1241.86 185.656 1245.89 205.593 1254.82 223.446C1263.6 240.64 1276.76 255.172 1292.95 265.555C1309.14 275.941 1327.77 281.805 1346.95 282.549C1368.74 282.789 1390.1 276.494 1408.33 264.463C1426.56 252.433 1440.82 235.212 1449.31 214.989L1503.87 238.3C1490.85 268.584 1469.34 294.391 1442.01 312.579C1414.67 330.765 1382.67 340.544 1349.92 340.721V341.238ZM247.775 610.136V615.705C248.037 629.872 245.315 643.933 239.789 656.963C234.524 668.921 226.61 679.506 216.656 687.906C205.901 696.944 193.432 703.683 180.009 707.71C164.29 712.538 147.921 714.87 131.49 714.621C112.547 714.974 93.6929 711.934 75.8043 705.647C60.8352 700.327 47.1828 691.813 35.7804 680.686C25.1468 670.043 16.8777 657.246 11.5203 643.141C5.84457 628.197 2.99754 612.314 3.12651 596.314V582.389H63.5207V593.426C63.0937 601.893 64.3496 610.36 67.2148 618.33C70.0801 626.3 74.4969 633.614 80.2059 639.841C91.3976 651.393 108.731 657.169 132.206 657.169C146.85 658.387 161.426 654.128 173.152 645.205C177.3 641.706 180.641 637.335 182.939 632.4C185.237 627.467 186.438 622.085 186.459 616.633C186.483 611.516 185.545 606.443 183.695 601.677C181.646 596.615 178.331 592.173 174.073 588.785C168.399 584.386 162.078 580.907 155.34 578.469C145.541 574.909 135.431 572.284 125.143 570.631C110.104 568.294 95.2554 564.847 80.7177 560.317C68.1939 556.298 56.3788 550.31 45.7096 542.576C35.9366 535.335 28.0081 525.862 22.5754 514.933C16.7479 501.993 13.9463 487.878 14.3864 473.675V470.891C14.2701 458.201 16.9995 445.649 22.3707 434.171C27.6934 422.913 35.3356 412.926 44.7882 404.878C55.0302 396.199 66.8514 389.612 79.5917 385.486C94.2984 380.689 109.686 378.355 125.143 378.576C142.268 378.279 159.312 381.002 175.505 386.622C189.13 391.375 201.663 398.847 212.356 408.591C222.051 417.436 229.704 428.315 234.774 440.463C239.792 452.441 242.368 465.314 242.348 478.316V494.923H181.749V483.783C181.745 477.43 180.422 471.147 177.866 465.338C175.309 459.531 171.577 454.324 166.908 450.056C155.354 439.937 140.321 434.789 125.041 435.718C112.311 435.025 99.6821 438.342 88.9067 445.208C84.7123 447.978 81.2889 451.782 78.9603 456.258C76.6317 460.734 75.475 465.734 75.5996 470.787C75.4995 475.953 76.5855 481.071 78.7728 485.743C81.3574 490.703 85.2547 494.845 90.0327 497.708C96.6132 501.798 103.704 504.99 111.12 507.197C122.006 510.488 133.082 513.106 144.285 515.037C172.08 518.811 198.52 529.44 221.262 545.98C230.31 553.874 237.413 563.779 242.014 574.912C246.616 586.045 248.587 598.103 247.775 610.136ZM491.296 414.161C482.649 404.99 472.186 397.752 460.587 392.913C446.928 387.26 432.254 384.52 417.493 384.868H288.31V708.02H348.806V586.206H417.799C432.59 586.538 447.282 583.69 460.894 577.851C472.221 572.939 482.411 565.708 490.816 556.617C499.222 547.527 505.659 536.773 509.722 525.041C513.773 513.728 515.852 501.793 515.862 489.765V479.244C515.85 467.519 513.771 455.89 509.722 444.898C505.642 433.562 499.381 423.152 491.296 414.263V414.161ZM455.265 488.218C455.424 493.583 454.437 498.921 452.371 503.869C450.304 508.815 447.208 513.257 443.288 516.893C434.524 524.638 423.09 528.601 411.453 527.929H348.704V443.144H411.76C423.287 442.598 434.58 446.55 443.288 454.182C447.133 457.837 450.162 462.275 452.173 467.202C454.187 472.127 455.134 477.429 454.957 482.751L455.265 488.218ZM1435.7 385.075H1491.69V652.321C1491.69 668.433 1485.34 683.887 1474.03 695.28C1462.72 706.673 1447.39 713.074 1431.4 713.074C1417.28 713.064 1403.6 708.063 1392.74 698.942C1381.9 689.821 1374.57 677.157 1372.03 663.151L1327.5 415.605H1319.11V707.916H1263.11V385.075H1378.37L1428.74 664.905H1435.59V384.971L1435.7 385.075ZM1158.7 334.328H939.032V276.051H1018.67V69.7616H939.032V11.1756H1158.7V69.3491H1079.06V275.638H1158.7V334.328ZM895.22 331.232H844.039V230.667H728.266V173.216H895.322V331.13L895.22 331.232ZM725.809 340.412C684.865 338.865 639.006 312.667 611.572 278.526C597.02 260.412 586.366 239.445 580.289 216.959C574.21 194.472 572.842 170.957 576.269 147.909C579.697 124.861 587.845 102.784 600.195 83.0794C612.546 63.3754 628.831 46.4757 648.014 33.4549C668.475 19.5499 691.741 10.3919 716.139 6.64066C740.537 2.88939 765.456 4.63834 789.102 11.7615C812.746 18.8845 834.529 31.2045 852.88 47.8333C871.23 64.4621 885.69 84.9858 895.22 107.925L840.559 131.236C833.078 113.275 821.048 97.6092 805.669 85.8068C790.292 74.0043 772.107 66.4796 752.935 63.9855C733.431 61.9986 713.758 65.4041 696.03 73.8362C678.3 82.2684 663.187 95.4084 652.313 111.845C641.514 128.576 635.32 147.898 634.367 167.834C633.413 187.77 637.735 207.604 646.888 225.304C655.928 242.545 669.4 257.021 685.896 267.219C702.391 277.416 721.302 282.96 740.652 283.271C761.603 282.967 781.983 276.351 799.169 264.274C816.354 252.197 829.557 235.21 837.078 215.505L844.141 216.226C852.125 261.197 826.841 344.228 725.809 340.31V340.412ZM710.251 714.415C677.291 714.415 645.071 704.566 617.666 686.115C590.261 667.663 568.901 641.439 556.289 610.755C543.676 580.072 540.375 546.309 546.805 513.736C553.235 481.162 569.107 451.243 592.413 427.758C615.719 404.274 645.413 388.282 677.739 381.803C710.066 375.324 743.572 378.649 774.024 391.358C804.474 404.067 830.501 425.591 848.812 453.204C867.124 480.818 876.897 513.284 876.897 546.495C876.844 591.013 859.268 633.692 828.027 665.171C796.788 696.65 754.431 714.36 710.251 714.415ZM710.251 437.06C688.719 436.813 667.601 443.022 649.58 454.897C631.56 466.772 617.448 483.778 609.039 503.751C600.629 523.725 598.303 545.767 602.354 567.076C606.404 588.386 616.651 608.001 631.789 623.43C646.929 638.858 666.277 649.406 687.378 653.729C708.478 658.054 730.379 655.959 750.295 647.715C770.213 639.469 787.248 625.444 799.236 607.421C811.226 589.399 817.628 568.192 817.629 546.495C817.765 517.644 806.536 489.915 786.404 469.398C766.272 448.881 738.884 437.25 710.251 437.06ZM1065.96 714.415C1033 714.415 1000.78 704.566 973.378 686.115C945.973 667.663 924.613 641.439 912.001 610.755C899.387 580.072 896.087 546.309 902.517 513.736C908.947 481.162 924.819 451.243 948.125 427.758C971.431 404.274 1001.12 388.282 1033.45 381.803C1065.78 375.324 1099.28 378.649 1129.73 391.358C1160.19 404.067 1186.21 425.591 1204.52 453.204C1222.84 480.818 1232.61 513.284 1232.61 546.495C1232.55 591.013 1214.98 633.692 1183.74 665.171C1152.5 696.65 1110.14 714.36 1065.96 714.415ZM1065.96 438.297C1044.72 438.297 1023.96 444.642 1006.31 456.531C988.646 468.421 974.884 485.319 966.757 505.09C958.629 524.861 956.502 546.615 960.646 567.604C964.789 588.593 975.016 607.871 990.034 623.003C1005.05 638.135 1024.18 648.44 1045.01 652.615C1065.84 656.79 1087.43 654.648 1107.05 646.458C1126.68 638.269 1143.44 624.401 1155.24 606.607C1167.04 588.814 1173.34 567.895 1173.34 546.495C1173.37 532.264 1170.61 518.167 1165.23 505.01C1159.85 491.854 1151.94 479.895 1141.97 469.817C1132 459.74 1120.15 451.743 1107.11 446.28C1094.07 440.819 1080.08 438 1065.96 437.988V438.297ZM1541.33 8.0813C1546.52 8.02609 1551.68 9.01554 1556.48 10.9916C1561.29 12.9677 1565.65 15.8908 1569.33 19.5893C1573 23.2878 1575.9 27.6874 1577.86 32.5302C1579.82 37.3731 1580.8 42.5617 1580.74 47.7919C1580.74 53.0067 1579.73 58.1706 1577.74 62.9884C1575.77 67.8064 1572.86 72.1841 1569.2 75.8715C1565.55 79.559 1561.2 82.4841 1556.42 84.4797C1551.63 86.4754 1546.51 87.5026 1541.33 87.5026C1536.16 87.5026 1531.04 86.4754 1526.25 84.4797C1521.48 82.4841 1517.12 79.559 1513.47 75.8715C1509.82 72.1841 1506.9 67.8064 1504.93 62.9884C1502.94 58.1706 1501.92 53.0067 1501.92 47.7919C1501.88 42.5617 1502.86 37.3731 1504.82 32.5302C1506.78 27.6874 1509.68 23.2878 1513.34 19.5893C1517.01 15.8908 1521.38 12.9677 1526.2 10.9916C1531 9.01554 1536.15 8.02609 1541.33 8.0813ZM1541.33 17.3643C1537.38 17.3367 1533.46 18.103 1529.81 19.6184C1526.14 21.1339 1522.82 23.3682 1520.04 26.191C1517.24 29.0138 1515.04 32.3685 1513.54 36.0594C1512.06 39.7504 1511.3 43.7037 1511.34 47.6888C1511.34 55.704 1514.51 63.3909 1520.13 69.0584C1525.75 74.726 1533.38 77.9101 1541.33 77.9101C1549.3 77.9101 1556.91 74.726 1562.54 69.0584C1568.17 63.3909 1571.33 55.704 1571.33 47.6888C1571.37 43.7037 1570.62 39.7504 1569.13 36.0594C1567.64 32.3685 1565.44 29.0138 1562.64 26.191C1559.85 23.3682 1556.53 21.1339 1552.87 19.6184C1549.21 18.103 1545.29 17.3367 1541.33 17.3643ZM1525.37 25.9253H1545.12C1553.93 25.9253 1559.04 30.773 1559.04 37.6837C1559.12 40.2265 1558.35 42.723 1556.84 44.7652C1555.34 46.8074 1553.19 48.2743 1550.75 48.9266C1552.85 49.6623 1554.66 51.0666 1555.89 52.9275C1557.14 54.7884 1557.74 57.0044 1557.61 59.2409C1557.61 64.0887 1557.61 66.1516 1559.87 68.1113V69.1428H1549.63C1548.05 65.9513 1547.45 62.364 1547.88 58.8283C1547.88 53.2586 1545.43 51.1957 1540.62 51.1957H1534.37V68.7303H1525.06V25.9253H1525.37ZM1544 43.563C1547.57 43.563 1549.83 41.8095 1549.83 38.5089C1549.83 35.2082 1547.57 33.9705 1544 33.9705H1534.68V43.4598L1544 43.563Z" fill="#141A21"/>
</svg>
