<svg width="640" height="280" viewBox="0 0 640 280" fill="none" xmlns="http://www.w3.org/2000/svg">
<g clip-path="url(#clip0_144_1461)">
<path d="M639.684 279.441H0.097168V0.498047H639.684V279.441ZM9.07217 270.478H630.713V9.47205H9.07217V270.478Z" fill="#141A21"/>
<path d="M91.2589 184.351H89.3269C76.7209 184.351 60.3049 177.199 54.7079 166.767C53.2059 164.404 57.6969 162.779 59.0069 165.126C63.9129 174.126 78.4299 180.597 89.3269 180.597H91.2589C107.258 180.597 120.909 174.126 120.909 160.277C120.909 144.631 105.1 140.836 89.5259 138.332C77.3639 136.35 58.1299 131.832 58.1299 118.189V116.55C58.1299 101.82 74.3829 95.5127 89.0899 95.5127H90.3839C103.411 95.5127 112.376 100.357 118.97 105.218C121.337 107.04 118.348 109.911 115.99 108.118C109.582 103.413 101.479 99.2657 90.3839 99.2657H89.0899C76.9369 99.2657 62.4199 104.133 62.4199 116.549V118.188C62.4199 127.704 77.1269 132.553 90.1619 134.909C107.891 137.979 125.397 141.554 125.397 160.276C125.397 177.341 108.08 184.351 91.2589 184.351Z" fill="#141A21"/>
<path d="M91.2588 186.179H89.3268C76.6878 186.179 59.2418 179.074 53.1528 167.57C52.4918 166.595 52.4448 165.336 53.0278 164.273C53.7158 163.031 55.2498 162.199 56.9148 162.199C58.4788 162.199 59.8768 162.978 60.5848 164.246C65.2418 172.814 79.4628 178.789 89.3258 178.789H91.2578C104.702 178.789 119.125 173.916 119.125 160.277C119.125 146.111 104.344 142.539 89.2408 140.091C81.1168 138.782 56.3468 134.73 56.3468 118.189V116.55C56.3468 100.862 73.3348 93.7041 89.0898 93.7041H90.3838C104.691 93.7041 114.156 99.4681 120.031 103.766C121.435 104.815 121.933 106.349 121.477 107.807C120.653 110.239 117.178 111.254 114.9 109.537C109.952 105.937 102.018 101.087 90.3838 101.087H89.0898C79.8518 101.087 64.2068 104.346 64.2068 116.549V118.188C64.2068 127.1 80.6758 131.36 90.5028 133.153C106.842 135.962 127.174 139.483 127.174 160.276C127.175 179.388 107.814 186.179 91.2588 186.179ZM56.9158 165.765C56.5478 165.765 56.2048 165.966 56.1688 166.033C61.6198 175.863 77.6628 182.57 89.3268 182.57H91.2588C106.185 182.57 123.605 176.746 123.605 160.277C123.605 149.211 117.019 143.847 106.878 140.525C115.387 143.67 122.692 149.281 122.692 160.277C122.692 173.709 110.341 182.404 91.2578 182.404H89.3268C78.2288 182.404 62.7908 175.785 57.4098 166.004C57.3268 165.843 57.1848 165.765 56.9158 165.765ZM89.0898 97.3191C74.5788 97.3191 59.9168 103.274 59.9168 116.549V118.188C59.9168 126.415 67.9068 132.088 84.2638 135.522C68.7718 131.902 60.6368 125.965 60.6368 118.188V116.549C60.6368 103.371 74.9108 97.4901 89.0908 97.4901H90.3848C103.056 97.4901 111.683 102.719 117.046 106.674C117.585 107.051 118.026 106.746 118.071 106.68C112.46 102.633 103.613 97.3191 90.3848 97.3191H89.0898Z" fill="#141A21"/>
<path d="M181.88 184.351H179.522C161.823 184.351 147.499 172.333 147.499 157.408V122.488C147.499 107.552 161.824 95.5127 179.522 95.5127H181.88C199.38 95.5127 213.897 107.552 213.897 122.488V157.408C213.897 172.333 199.573 184.351 181.88 184.351ZM209.409 122.487C209.409 109.706 197.016 99.2657 181.88 99.2657H179.522C164.377 99.2657 151.99 109.705 151.99 122.487V157.407C151.99 170.167 164.377 180.596 179.522 180.596H181.88C197.016 180.596 209.409 170.166 209.409 157.407V122.487Z" fill="#141A21"/>
<path d="M181.88 186.179H179.522C160.875 186.179 145.715 173.245 145.715 157.408V122.488C145.715 106.646 160.875 93.7051 179.522 93.7051H181.88C200.524 93.7051 215.684 106.646 215.684 122.488V157.408C215.684 173.245 200.524 186.179 181.88 186.179ZM179.522 97.3191C162.866 97.3191 149.279 108.587 149.279 122.487V157.407C149.279 171.266 162.865 182.569 179.522 182.569H181.88C198.53 182.569 212.108 171.266 212.108 157.407V122.487C212.108 108.587 198.53 97.3191 181.88 97.3191H179.522ZM181.88 182.403H179.522C163.328 182.403 150.198 171.184 150.198 157.407V122.487C150.198 108.71 163.328 97.4911 179.522 97.4911H181.88C198.026 97.4911 211.198 108.71 211.198 122.487V157.407C211.199 171.185 198.026 182.403 181.88 182.403ZM179.522 101.088C165.316 101.088 153.765 110.702 153.765 122.487V157.407C153.765 169.196 165.316 178.788 179.522 178.788H181.88C196.077 178.788 207.625 169.196 207.625 157.407V122.487C207.625 110.702 196.077 101.088 181.88 101.088H179.522Z" fill="#141A21"/>
<path d="M298.501 95.5127C297.433 95.5127 296.374 96.2417 296.374 97.4857V108.623V120.883V158.633V161.313C294.864 172.104 282.944 180.598 268.787 180.598H266.434C251.292 180.598 238.893 170.168 238.893 157.198V97.4847C238.893 96.2407 237.832 95.5117 236.529 95.5117C235.474 95.5117 234.407 96.2407 234.407 97.4847V157.196C234.407 172.333 248.732 184.35 266.433 184.35H268.786C280.381 184.35 292.159 179.1 296.373 171.528V195.157C296.373 207.923 283.978 218.343 268.833 218.343H266.478C253.034 218.343 240.208 212.261 236.813 202.905C236.386 201.835 235.521 201.479 234.653 201.479C233.587 201.479 232.339 202.194 232.339 203.278C232.339 203.622 232.339 203.778 232.535 203.973C236.582 215.483 251.967 222.137 266.478 222.137H268.833C286.531 222.137 300.848 210.082 300.848 195.157V97.4847C300.848 96.2407 299.559 95.5127 298.501 95.5127Z" fill="#141A21"/>
<path d="M268.834 223.923H266.479C252.279 223.923 235.623 217.402 230.942 204.878C230.509 204.282 230.509 203.649 230.509 203.278C230.509 201.116 232.684 199.645 234.654 199.645C236.431 199.645 237.839 200.631 238.47 202.252C241.518 210.551 253.271 216.564 266.479 216.564H268.834C283.046 216.564 294.588 206.97 294.588 195.156V176.728C288.778 182.39 278.865 186.177 268.787 186.177H266.434C247.778 186.177 232.627 173.156 232.627 157.195V97.4851C232.627 95.3811 234.336 93.7041 236.529 93.7041C238.952 93.7041 240.676 95.3021 240.676 97.4851V157.196C240.676 169.1 252.224 178.788 266.433 178.788H268.786C281.871 178.788 293.198 171.009 294.608 161.087L294.587 158.632V97.4851C294.587 95.3811 296.297 93.7041 298.5 93.7041C300.506 93.7041 302.64 95.1451 302.64 97.4851V195.157C302.64 211.04 287.487 223.923 268.834 223.923ZM234.23 203.36V203.366C238.159 214.54 253.419 220.346 266.479 220.346H268.834C285.489 220.346 299.067 209.043 299.067 195.157V97.4851C299.032 97.4381 298.777 97.3191 298.501 97.3191C298.487 97.3191 298.158 97.3251 298.158 97.4851V161.311C296.505 173.454 283.851 182.403 268.786 182.403H266.433C250.257 182.403 237.106 171.092 237.106 157.196V97.4851C237.082 97.4081 236.893 97.3191 236.528 97.3191C236.528 97.3191 236.19 97.3251 236.19 97.4851V157.196C236.19 171.208 249.771 182.569 266.433 182.569H268.786C279.836 182.569 291.03 177.446 294.795 170.641L298.157 164.559V195.157C298.157 208.96 284.991 220.169 268.833 220.169H266.478C251.597 220.169 238.703 213.325 235.118 203.507C234.997 203.251 234.582 203.194 234.23 203.36Z" fill="#141A21"/>
<path d="M354.414 184.351C340.549 184.351 329.648 175.009 329.648 163.339V59.9032C329.648 58.6302 330.714 57.9102 331.773 57.9102C333.076 57.9102 334.14 58.4702 334.14 59.9032V163.339C334.14 172.849 343.105 180.597 354.413 180.597C355.905 180.597 356.747 181.492 356.747 182.57C356.748 183.491 355.907 184.351 354.414 184.351Z" fill="#141A21"/>
<path d="M354.414 186.179C339.5 186.179 327.863 176.134 327.863 163.339V59.9031C327.863 57.7851 329.566 56.1201 331.773 56.1201C334.255 56.1201 335.914 57.6411 335.914 59.9031V163.339C335.914 171.857 344.228 178.788 354.414 178.788C356.812 178.788 358.531 180.386 358.531 182.569C358.532 184.323 357.092 186.179 354.414 186.179ZM331.774 59.6991C331.774 59.6991 331.442 59.7111 331.442 59.9031V163.339C331.442 174.126 341.52 182.569 354.415 182.569C354.77 182.569 354.966 182.45 355.001 182.438C354.966 182.438 354.622 182.403 354.415 182.403C342.226 182.403 332.349 173.852 332.349 163.339V59.9031C332.377 59.8111 332.217 59.6991 331.774 59.6991Z" fill="#141A21"/>
<path d="M434.455 141.554H374.867V157.408C374.867 170.168 387.254 180.597 402.396 180.597H404.742C416.676 180.597 426.986 173.925 430.767 164.771C430.997 163.855 431.863 163.494 432.736 163.494C433.99 163.494 435.246 164.207 435.246 165.287C435.246 165.478 435.098 165.844 435.098 166.033C430.768 176.637 418.805 184.351 404.743 184.351H402.397C384.667 184.351 370.395 172.333 370.395 157.408V122.488C370.395 107.552 385.102 95.5127 402.604 95.5127H404.338C422.027 95.5127 436.74 106.681 436.74 122.488V139.562C436.741 140.647 435.729 141.554 434.455 141.554ZM432.248 122.487C432.248 109.706 419.914 99.2657 404.742 99.2657H402.603C387.464 99.2657 374.867 109.705 374.867 122.487V137.77H432.248V122.487Z" fill="#141A21"/>
<path d="M404.743 186.179H402.397C383.762 186.179 368.594 173.245 368.594 157.408V122.488C368.594 106.646 383.875 93.7051 402.604 93.7051H404.338C423.869 93.7051 438.576 106.08 438.576 122.488V139.562C438.576 141.673 436.717 143.339 434.455 143.339H376.67V157.407C376.67 169.196 388.209 178.788 402.397 178.788H404.743C415.682 178.788 425.497 172.87 429.182 164.085C429.411 162.731 430.838 161.716 432.737 161.716C435.206 161.716 437.081 163.294 437.081 165.286C437.081 165.682 436.942 166.038 436.841 166.286L436.718 166.702C432.076 178.36 419.207 186.179 404.743 186.179ZM402.604 97.3191C385.813 97.3191 372.182 108.587 372.182 122.487V157.407C372.182 171.266 385.752 182.569 402.397 182.569H404.743C417.673 182.569 429.171 175.743 433.333 165.528C433.345 165.469 433.362 165.409 433.388 165.362C433.228 165.35 432.966 165.286 432.738 165.286C428.22 175.595 417.111 182.403 404.744 182.403H402.397C386.215 182.403 373.073 171.184 373.073 157.407V139.768H434.456C434.749 139.768 434.981 139.584 435.022 139.537L435.004 122.487C435.004 108.147 421.787 97.3191 404.338 97.3191H402.604ZM434.094 139.556H373.073V122.488C373.073 108.711 386.323 97.4921 402.604 97.4921H404.743C420.97 97.4921 434.095 108.711 434.095 122.488L434.094 139.556ZM376.67 135.991H430.518V122.487C430.518 110.702 418.922 101.088 404.743 101.088H402.604C388.319 101.088 376.67 110.702 376.67 122.487V135.991Z" fill="#141A21"/>
<path d="M522.758 184.351C521.75 184.351 520.633 183.64 520.633 182.404V122.686C520.633 109.707 508.057 99.2667 492.869 99.2667H490.748C475.553 99.2667 462.965 108.99 462.965 120.882V182.403C462.965 183.639 461.957 184.35 460.61 184.35C459.6 184.35 458.481 183.639 458.481 182.403V97.4847C458.481 96.2407 459.6 95.6917 460.61 95.6917C461.958 95.6917 462.965 96.2407 462.965 97.4847V108.622C467.074 100.904 479.026 95.5127 490.748 95.5127H492.869C510.598 95.5127 525.121 107.552 525.121 122.686V182.404C525.121 183.64 523.871 184.351 522.758 184.351Z" fill="#141A21"/>
<path d="M522.758 186.179C520.553 186.179 518.822 184.513 518.822 182.404V122.686C518.822 110.783 507.203 101.088 492.869 101.088H490.748C476.687 101.088 464.803 110.136 464.803 120.882V182.403C464.803 184.583 463.03 186.178 460.61 186.178C458.409 186.178 456.756 184.512 456.756 182.403V97.4851C456.756 95.4211 458.344 93.9031 460.61 93.9031C463.116 93.9031 464.803 95.3521 464.803 97.4851V103.319C470.524 97.5491 480.551 93.7041 490.748 93.7041H492.869C511.652 93.7041 526.961 106.699 526.961 122.685V182.403C526.961 184.712 524.795 186.179 522.758 186.179ZM490.748 97.4911H492.869C509.14 97.4911 522.473 108.8 522.473 122.685V182.403C522.473 182.569 522.758 182.569 522.758 182.569C523.059 182.569 523.309 182.438 523.32 182.362L523.308 122.685C523.308 108.674 509.708 97.3191 492.869 97.3191H490.748C479.465 97.3191 468.203 102.551 464.576 109.475L461.228 115.933V97.5131C461.193 97.5381 460.974 97.4801 460.609 97.4801C460.453 97.4801 460.281 97.5391 460.246 97.5721L460.328 182.404C460.328 182.564 460.603 182.57 460.603 182.57C461.009 182.57 461.21 182.451 461.234 182.439L461.228 120.882C461.229 107.981 474.467 97.4911 490.748 97.4911Z" fill="#141A21"/>
<path d="M558.362 163.339V99.6216H546.827C543.585 99.6216 543.585 95.8616 546.827 95.8616H558.362V59.7106C558.362 57.1876 562.848 57.1876 562.848 59.7106V95.8616H581.815C584.811 95.8616 584.811 99.6216 581.815 99.6216H562.848V163.339C562.848 172.849 571.612 180.597 583.082 180.597C586.062 180.597 586.062 184.351 583.082 184.351C568.998 184.351 558.362 175.009 558.362 163.339Z" fill="#141A21"/>
<path d="M583.082 186.179C568.195 186.179 556.566 176.134 556.566 163.339V101.462H546.826C544.117 101.462 542.66 99.5556 542.66 97.7516C542.66 95.9656 544.117 94.0636 546.826 94.0636H556.566V59.7106C556.566 57.6156 558.32 56.0166 560.619 56.0166C562.853 56.0166 564.613 57.6166 564.613 59.7106V94.0636H581.814C584.498 94.0636 585.902 95.9656 585.902 97.7516C585.902 99.5556 584.498 101.462 581.814 101.462H564.613V163.339C564.613 172.007 572.722 178.788 583.082 178.788C585.742 178.788 587.158 180.683 587.158 182.462C587.159 184.284 585.743 186.179 583.082 186.179ZM546.262 97.7776C546.352 97.7776 546.465 97.8426 546.826 97.8426H560.125V163.338C560.125 174.125 570.271 182.568 583.082 182.568C583.426 182.568 583.568 182.478 583.598 182.455C583.569 182.455 583.426 182.402 583.082 182.402C570.736 182.402 561.041 174.004 561.041 163.338V97.8436H581.814C582.169 97.8436 582.259 97.7606 582.259 97.7606C582.259 97.7606 582.169 97.6776 581.814 97.6776H561.041V59.7106C561.023 59.6846 560.17 59.6786 560.098 59.7376L560.125 97.6766H546.826C546.428 97.6766 546.316 97.7366 546.244 97.7776H546.262Z" fill="#141A21"/>
</g>
<defs>
<clipPath id="clip0_144_1461">
<rect width="640" height="280" fill="white"/>
</clipPath>
</defs>
</svg>
