<svg width="1367" height="446" viewBox="0 0 1367 446" fill="none" xmlns="http://www.w3.org/2000/svg">
<path d="M1323.02 337.434V108.539L1360.65 83.9317V362.105L1323.15 337.434H1323.02Z" fill="#2C3948"/>
<path d="M683.925 48.2369C683.477 48.2369 336.16 40.9317 44.0722 108.473L6.37732 83.8016C315.232 2.80386 683.094 5.75156 683.477 5.75156C683.862 5.75156 1051.53 3.06019 1360.64 83.9938L1323.01 108.537C1030.99 40.8677 684.309 48.2369 683.925 48.2369Z" fill="#222C38"/>
<path d="M7.52929 362.322L6.37732 362.13V83.8925L44.0722 108.499C336.224 40.8946 683.542 43.3937 683.925 43.3937C684.245 43.3937 1030.92 40.9586 1323.01 108.499V337.459L1360.71 362.13C1051.79 443.32 683.925 440.244 683.541 440.244C683.093 440.244 316.704 443.256 7.52929 362.322Z" fill="#141A21"/>
<path fill-rule="evenodd" clip-rule="evenodd" d="M325.83 197.713H292.039V236.61C292.039 256.026 289.479 266.663 275.592 266.663C260.424 266.663 258.056 256.923 258.056 242.89V197.713H224.393V248.016C224.393 271.021 230.409 289.22 262.472 289.22C278.024 289.22 285 284.798 292.743 270.124H293.063C293.063 275.378 293.511 280.697 293.895 286.016H326.47C326.022 279.992 325.83 273.456 325.83 267.881V197.713Z" fill="white"/>
<path fill-rule="evenodd" clip-rule="evenodd" d="M730.836 285.997H764.499V252.547C764.499 234.86 776.211 224.608 794.258 224.608C798.162 224.608 800.786 224.992 803.346 225.312V196.476C781.203 196.476 772.051 199.808 763.795 216.662H763.411C763.411 210.382 763.219 204.038 762.771 197.694H730.196C730.644 203.717 730.836 210.189 730.836 215.828V285.997Z" fill="white"/>
<path fill-rule="evenodd" clip-rule="evenodd" d="M816.344 285.997H849.943V243.768C849.943 227.555 854.935 216.854 866.711 216.854C881.942 216.854 885.014 227.555 885.014 240.756V285.997H918.677V238.962C918.677 226.017 923.477 216.854 934.805 216.854C948.5 216.854 953.556 226.53 953.556 239.73V285.997H987.155V235.886C987.155 201.218 964.436 194.362 945.62 194.362C927.957 194.362 915.797 202.5 908.374 214.226C902.486 200.385 890.07 194.362 876.822 194.362C860.183 194.362 852.567 204.614 849.303 213.522H848.983C848.983 208.331 848.919 197.694 848.919 197.694H815.576C816.152 203.717 816.344 210.189 816.344 215.828V285.997Z" fill="white"/>
<path fill-rule="evenodd" clip-rule="evenodd" d="M84.8713 285.997V159.117H157.829C188.356 159.117 205.7 170.203 205.7 192.247C205.7 208.395 192.58 219.609 173.637 223.005C184.324 223.967 194.308 226.53 198.532 234.476C204.676 246.01 205.444 272.732 210.628 285.997H171.525C167.493 273.629 168.005 255.366 164.485 246.587C162.245 240.756 156.613 237.744 141.894 237.744H121.734V285.997H84.8713ZM121.734 183.66V213.201H146.693C163.461 213.201 168.965 207.883 168.965 198.27C168.965 186.031 159.237 183.66 141.51 183.66H121.734Z" fill="white"/>
<path fill-rule="evenodd" clip-rule="evenodd" d="M345.51 285.997V159.117H379.109V209.356C386.021 202.308 397.22 194.362 416.676 194.362C446.115 194.362 462.179 212.176 462.179 241.268C462.179 271.514 445.475 289.201 417.572 289.201C395.685 289.201 385.829 280.55 378.085 271.386C378.085 276.192 377.893 285.997 377.893 285.997H345.51ZM430.692 241.268C430.692 225.825 420.196 214.739 405.284 214.739C390.053 214.739 379.109 225.441 379.109 242.55C379.109 258.186 390.053 268.951 405.284 268.951C422.692 268.951 430.692 255.558 430.692 241.268Z" fill="white"/>
<path fill-rule="evenodd" clip-rule="evenodd" d="M717.678 250.077C717.486 215.602 702.766 194.391 659.76 194.391C629.617 194.391 603.121 209.13 603.121 243.221C603.121 278.016 629.745 289.294 660.336 289.294C684.591 289.294 708.782 286.923 715.694 259.048H679.919C678.191 265.008 675.503 270.967 660.912 270.967C646.576 270.967 638.576 263.854 637.744 250.077H717.678ZM638.32 231.814C639.92 222.715 644.464 212.782 660.08 212.782C672.047 212.782 681.455 217.332 681.839 231.814H638.32Z" fill="white"/>
<path fill-rule="evenodd" clip-rule="evenodd" d="M1039.15 223.704C1039.4 217.552 1043.24 212.682 1055.66 212.682C1069.03 212.682 1075.56 216.143 1075.56 230.304H1050.99C1017.96 230.304 998.316 239.724 998.316 260.614C998.316 279.07 1013.1 289.194 1038.19 289.194C1053.03 289.194 1068.07 285.093 1076.2 271.7H1076.52C1076.52 276.442 1076.91 282.914 1077.29 285.99H1109.93C1109.35 279.518 1109.16 272.726 1109.16 266.254V232.483C1109.16 202.686 1089.51 194.355 1055.15 194.355C1031.98 194.355 1006.19 200.635 1004.46 223.704H1039.15ZM1075.56 247.414C1075.56 256.577 1070.57 269.97 1048.68 269.97C1039.15 269.97 1034.03 266.254 1034.03 260.807C1034.03 253.437 1038.83 247.414 1061.42 247.414H1075.56Z" fill="white"/>
<path fill-rule="evenodd" clip-rule="evenodd" d="M1157.13 159.131H1120.33V183.744H1157.13V159.131ZM1121.8 286.016H1155.59V197.711H1121.8V286.016Z" fill="white"/>
<path fill-rule="evenodd" clip-rule="evenodd" d="M477.429 285.997V159.117H511.156V209.292C517.94 202.308 529.204 194.362 548.595 194.362C578.162 194.362 594.226 212.112 594.226 241.268C594.226 271.514 577.458 289.201 549.555 289.201C527.668 289.201 517.812 280.55 510.132 271.386C510.132 276.192 509.876 285.997 509.876 285.997H477.429ZM562.739 241.268C562.739 225.825 552.179 214.739 537.331 214.739C521.972 214.739 511.156 225.441 511.156 242.55C511.156 258.186 521.972 268.951 537.331 268.951C554.611 268.951 562.739 255.558 562.739 241.268Z" fill="white"/>
<path fill-rule="evenodd" clip-rule="evenodd" d="M1284.65 285.997V159.117H1251.05V209.292C1244.14 202.308 1232.94 194.362 1213.36 194.362C1183.92 194.362 1168.05 212.112 1168.05 241.268C1168.05 271.514 1184.62 289.201 1212.59 289.201C1234.48 289.201 1244.33 280.55 1252.08 271.386C1252.08 276.192 1252.2 285.997 1252.2 285.997H1284.65ZM1199.4 241.268C1199.4 225.825 1210.03 214.739 1224.88 214.739C1240.11 214.739 1251.05 225.441 1251.05 242.55C1251.05 258.186 1240.11 268.951 1224.88 268.951C1207.47 268.951 1199.4 255.558 1199.4 241.268Z" fill="white"/>
<path d="M676.7 440.19C631.646 440.19 371.045 437.627 116.013 387.068H115.821C114.797 386.811 113.709 386.619 112.621 386.427C112.557 386.427 112.429 386.363 112.365 386.363C111.853 386.299 111.341 386.107 110.829 386.042H110.701C110.253 385.914 109.677 385.786 109.229 385.722C109.101 385.722 109.037 385.722 108.973 385.658C108.397 385.594 107.885 385.466 107.373 385.338H107.309C106.797 385.209 106.285 385.145 105.709 385.017H105.581C105.069 384.889 104.557 384.761 103.981 384.697L103.853 384.633C103.341 384.569 102.893 384.44 102.381 384.376C102.317 384.312 102.125 384.312 102.061 384.248C101.613 384.184 101.101 384.056 100.717 383.992C100.589 383.992 100.525 383.928 100.397 383.928C99.9492 383.864 99.5012 383.736 99.0532 383.671C98.9252 383.607 98.7332 383.607 98.6052 383.543C98.1573 383.479 97.7732 383.351 97.3253 383.351C97.1973 383.287 97.0693 383.223 96.9413 383.223C96.4933 383.159 96.1093 383.031 95.6613 382.967C95.5333 382.903 95.3414 382.903 95.1494 382.838C94.7014 382.774 94.3174 382.646 93.8694 382.582C93.8054 382.518 93.6774 382.518 93.4854 382.518C93.0374 382.39 92.6534 382.262 92.1414 382.198C92.0135 382.198 91.9494 382.134 91.7574 382.134C91.3734 382.069 90.9255 381.941 90.4775 381.877C90.4135 381.813 90.2215 381.749 90.0295 381.749C89.6455 381.685 89.2615 381.621 88.8135 381.493C88.6855 381.493 88.4935 381.429 88.3015 381.429C87.9175 381.3 87.5336 381.236 87.1496 381.172L86.5736 381.044C86.2536 380.916 85.8696 380.916 85.4216 380.788C85.2296 380.724 85.0376 380.724 84.8456 380.66C84.5257 380.596 84.1416 380.532 83.7577 380.403C83.5657 380.403 83.3737 380.339 83.1177 380.275C82.7977 380.211 82.4137 380.147 82.0937 380.019C81.8377 380.019 81.6457 379.955 81.3897 379.891C81.0698 379.891 80.7498 379.763 80.3658 379.698C80.1738 379.634 79.9178 379.57 79.7258 379.506C79.3418 379.506 79.0218 379.378 78.6378 379.378C78.4458 379.25 78.1898 379.186 77.9339 379.186C77.6139 379.122 77.2939 378.994 76.9739 378.994C76.7179 378.865 76.5259 378.801 76.2699 378.801C75.9499 378.737 75.5659 378.673 75.2459 378.609C74.99 378.481 74.7979 378.481 74.5419 378.417C74.2219 378.353 73.838 378.289 73.518 378.225C73.262 378.161 73.134 378.096 72.878 378.032C72.558 377.968 72.238 377.904 71.854 377.84C71.598 377.776 71.4061 377.712 71.1501 377.648C70.8301 377.584 70.4461 377.52 70.1261 377.456C69.8701 377.392 69.6781 377.327 69.4861 377.263C69.1661 377.263 68.7821 377.135 68.4622 377.071C68.2062 377.007 67.9501 376.943 67.7581 376.943C67.4381 376.815 67.0542 376.751 66.7342 376.687C66.4782 376.623 66.2862 376.559 66.0302 376.559C65.7102 376.43 65.3262 376.366 65.0063 376.302C64.8143 376.238 64.5583 376.238 64.3663 376.174C63.9823 376.046 63.5983 375.982 63.2783 375.854C63.0863 375.854 62.8943 375.854 62.7023 375.79C62.3823 375.725 61.9343 375.597 61.6143 375.533C61.3583 375.469 61.1664 375.405 60.9104 375.341C60.5264 375.277 60.2704 375.213 59.9504 375.149C59.6944 375.085 59.4384 375.021 59.2464 375.021C58.8624 374.892 58.5424 374.828 58.1584 374.764C57.9664 374.7 57.7104 374.636 57.5184 374.572C57.1984 374.508 56.8785 374.444 56.4945 374.316C56.2385 374.316 56.0465 374.252 55.8545 374.188C55.4705 374.123 55.1505 374.059 54.8305 373.995C54.5745 373.931 54.2545 373.803 54.0625 373.803C53.7426 373.739 53.4226 373.611 53.1666 373.611C52.9106 373.547 52.5906 373.483 52.3986 373.419C52.0146 373.29 51.7586 373.29 51.3746 373.162C51.1826 373.098 50.9266 373.098 50.6067 372.97C50.3507 372.97 50.0307 372.842 49.7747 372.778C49.4547 372.714 49.2627 372.65 48.9427 372.586C48.6227 372.521 48.3027 372.457 47.9827 372.393C47.7267 372.329 47.5348 372.265 47.3428 372.201C47.0228 372.137 46.6387 372.073 46.3188 372.009C46.0628 371.881 45.8068 371.881 45.5508 371.817C45.2948 371.752 44.9108 371.624 44.5908 371.56C44.3988 371.56 44.1429 371.432 43.8869 371.368C43.5669 371.304 43.2468 371.24 42.8629 371.176C42.6709 371.112 42.4789 371.048 42.2229 371.048C41.9029 370.919 41.5829 370.855 41.1989 370.791C40.9429 370.663 40.7509 370.663 40.4949 370.599C40.175 370.535 39.8549 370.407 39.535 370.343C39.343 370.343 39.087 370.279 38.895 370.215C38.575 370.15 38.191 370.022 37.871 369.958C37.551 369.894 37.359 369.83 37.167 369.766C36.7831 369.702 36.4631 369.638 36.1431 369.51L35.5671 369.382C35.1831 369.317 34.7991 369.189 34.4151 369.125C34.2231 369.061 33.9672 368.997 33.7752 368.933C33.3912 368.869 33.0711 368.805 32.7512 368.741C32.4952 368.677 32.3032 368.613 32.1112 368.548C31.7912 368.42 31.4072 368.356 31.0872 368.292C30.8312 368.292 30.6393 368.228 30.4473 368.164C30.1273 368.1 29.7433 367.972 29.3593 367.908C29.1673 367.844 28.8473 367.78 28.6553 367.715C28.3353 367.587 28.0153 367.587 27.6953 367.459C27.5033 367.395 27.2473 367.395 27.0553 367.267C26.6713 367.203 26.3513 367.139 25.9674 367.075C25.7754 367.011 25.6474 366.946 25.4554 366.882C25.0714 366.818 24.6874 366.69 24.3674 366.626C24.1114 366.562 23.8554 366.562 23.6634 366.434C23.3434 366.37 22.9594 366.306 22.6395 366.177C22.3835 366.177 22.1915 366.049 21.9355 365.985C21.6155 365.921 21.2955 365.857 20.9755 365.793C20.7195 365.665 20.3995 365.665 20.1436 365.601C19.8876 365.473 19.5675 365.409 19.3115 365.344C19.0556 365.28 18.8636 365.216 18.6076 365.152C18.2876 365.088 17.9676 364.96 17.6476 364.96C17.2636 364.832 16.9436 364.768 16.6236 364.64C16.4316 364.64 16.1757 364.575 15.9197 364.447C15.5357 364.383 15.0877 364.255 14.7037 364.191C14.5117 364.127 14.3837 364.127 14.2557 364.063C13.8717 363.935 13.4877 363.871 13.1037 363.742C12.9757 363.742 12.7838 363.678 12.5918 363.614C11.5038 363.358 10.4158 363.102 9.39185 362.781C9.32785 362.781 9.26384 362.781 9.19984 362.717C8.62386 362.589 8.11187 362.461 7.53589 362.333L28.3353 348.043L43.8869 337.405V337.341C315.751 400.332 634.91 402.575 678.172 402.575H683.1H688.028C731.419 402.575 1051.22 400.332 1323.02 337.469L1360.65 362.14C1076.3 436.794 742.042 440.19 690.332 440.19C685.916 440.19 683.548 440.126 683.548 440.126C683.484 440.126 681.116 440.19 676.7 440.19Z" fill="#222D3A"/>
<path d="M6.29437 362.125V83.8878L6.35837 83.9519L6.29437 362.125Z" fill="#141A21"/>
<path d="M7.44637 362.305L6.3584 362.113V83.9397L44.0533 108.482L43.9253 337.314L28.3098 348.015L7.44637 362.305Z" fill="#324152"/>
<path d="M28.3287 348.05L43.9442 337.348V337.412L28.3287 348.05Z" fill="#141A21"/>
</svg>
